<svg xmlns="http://www.w3.org/2000/svg" width="1200" height="800"><path d="M581,332L710,297L642,242Z" fill="#79b4d8" stroke="#79b4d8" stroke-width="1.51"/><path d="M710,297L713,164L642,242Z" fill="#7eb6d8" stroke="#7eb6d8" stroke-width="1.51"/><path d="M642,242L475,292L581,332Z" fill="#81b9db" stroke="#81b9db" stroke-width="1.51"/><path d="M461,167L475,292L642,242Z" fill="#8ec1de" stroke="#8ec1de" stroke-width="1.51"/><path d="M581,332L722,479L710,297Z" fill="#6aacd5" stroke="#6aacd5" stroke-width="1.51"/><path d="M843,113L773,105L713,164Z" fill="#86b5da" stroke="#86b5da" stroke-width="1.51"/><path d="M585,513L722,479L581,332Z" fill="#64a8d3" stroke="#64a8d3" stroke-width="1.51"/><path d="M422,466L585,513L581,332Z" fill="#70afd6" stroke="#70afd6" stroke-width="1.51"/><path d="M509,110L461,167L642,242Z" fill="#95c3e0" stroke="#95c3e0" stroke-width="1.51"/><path d="M584,61L509,110L642,242Z" fill="#95c2e0" stroke="#95c2e0" stroke-width="1.51"/><path d="M843,113L713,164L899,159Z" fill="#80b1d8" stroke="#80b1d8" stroke-width="1.51"/><path d="M713,164L584,61L642,242Z" fill="#8dbdde" stroke="#8dbdde" stroke-width="1.51"/><path d="M722,479L885,351L710,297Z" fill="#60a4d1" stroke="#60a4d1" stroke-width="1.51"/><path d="M773,105L584,61L713,164Z" fill="#8fbcde" stroke="#8fbcde" stroke-width="1.51"/><path d="M475,292L422,466L581,332Z" fill="#7fb8da" stroke="#7fb8da" stroke-width="1.51"/><path d="M362,436L422,466L475,292Z" fill="#82b9db" stroke="#82b9db" stroke-width="1.51"/><path d="M776,-19L596,-16L584,61Z" fill="#9cc4e2" stroke="#9cc4e2" stroke-width="1.51"/><path d="M899,159L713,164L710,297Z" fill="#7cb2d6" stroke="#7cb2d6" stroke-width="1.51"/><path d="M722,479L877,469L885,351Z" fill="#539ccc" stroke="#539ccc" stroke-width="1.51"/><path d="M830,577L877,469L722,479Z" fill="#4a97c8" stroke="#4a97c8" stroke-width="1.51"/><path d="M585,513L633,597L722,479Z" fill="#58a0ce" stroke="#58a0ce" stroke-width="1.51"/><path d="M507,585L633,597L585,513Z" fill="#5ba1cf" stroke="#5ba1cf" stroke-width="1.51"/><path d="M988,199L899,159L885,351Z" fill="#6fa5cf" stroke="#6fa5cf" stroke-width="1.51"/><path d="M885,351L899,159L710,297Z" fill="#6ea9d2" stroke="#6ea9d2" stroke-width="1.51"/><path d="M633,597L770,579L722,479Z" fill="#4f9aca" stroke="#4f9aca" stroke-width="1.51"/><path d="M422,466L507,585L585,513Z" fill="#6aa9d3" stroke="#6aa9d3" stroke-width="1.51"/><path d="M311,238L336,323L475,292Z" fill="#98c6e0" stroke="#98c6e0" stroke-width="1.51"/><path d="M336,323L362,436L475,292Z" fill="#8cbfdd" stroke="#8cbfdd" stroke-width="1.51"/><path d="M422,466L311,592L507,585Z" fill="#73add4" stroke="#73add4" stroke-width="1.51"/><path d="M845,683L830,577L770,579Z" fill="#3e8dc4" stroke="#3e8dc4" stroke-width="1.51"/><path d="M770,579L830,577L722,479Z" fill="#4a96c9" stroke="#4a96c9" stroke-width="1.51"/><path d="M584,61L513,-61L509,110Z" fill="#a4cae5" stroke="#a4cae5" stroke-width="1.51"/><path d="M328,116L311,238L461,167Z" fill="#a8cde4" stroke="#a8cde4" stroke-width="1.51"/><path d="M461,167L311,238L475,292Z" fill="#9bc8e0" stroke="#9bc8e0" stroke-width="1.51"/><path d="M776,-19L584,61L773,105Z" fill="#94bedf" stroke="#94bedf" stroke-width="1.51"/><path d="M328,116L461,167L509,110Z" fill="#a5cce4" stroke="#a5cce4" stroke-width="1.51"/><path d="M336,323L229,458L362,436Z" fill="#8dbede" stroke="#8dbede" stroke-width="1.51"/><path d="M843,113L776,-19L773,105Z" fill="#8cb7db" stroke="#8cb7db" stroke-width="1.51"/><path d="M905,-61L776,-19L843,113Z" fill="#8eb7db" stroke="#8eb7db" stroke-width="1.51"/><path d="M1025,304L988,199L885,351Z" fill="#659dcc" stroke="#659dcc" stroke-width="1.51"/><path d="M899,159L978,42L843,113Z" fill="#81acd6" stroke="#81acd6" stroke-width="1.51"/><path d="M877,469L974,467L885,351Z" fill="#4e96c9" stroke="#4e96c9" stroke-width="1.51"/><path d="M975,606L974,467L877,469Z" fill="#418cc4" stroke="#418cc4" stroke-width="1.51"/><path d="M366,-41L328,116L509,110Z" fill="#b1d2e7" stroke="#b1d2e7" stroke-width="1.51"/><path d="M974,467L1025,304L885,351Z" fill="#5596c9" stroke="#5596c9" stroke-width="1.51"/><path d="M596,-16L513,-61L584,61Z" fill="#a5cae6" stroke="#a5cae6" stroke-width="1.51"/><path d="M615,-161L513,-61L596,-16Z" fill="#a9cde7" stroke="#a9cde7" stroke-width="1.51"/><path d="M633,597L750,752L770,579Z" fill="#4690c6" stroke="#4690c6" stroke-width="1.51"/><path d="M507,585L602,714L633,597Z" fill="#569acb" stroke="#569acb" stroke-width="1.51"/><path d="M421,769L602,714L507,585Z" fill="#5c99ca" stroke="#5c99ca" stroke-width="1.51"/><path d="M311,238L222,300L336,323Z" fill="#a0c9e3" stroke="#a0c9e3" stroke-width="1.51"/><path d="M328,116L250,204L311,238Z" fill="#add0e6" stroke="#add0e6" stroke-width="1.51"/><path d="M250,204L222,300L311,238Z" fill="#a8cee4" stroke="#a8cee4" stroke-width="1.51"/><path d="M362,436L311,592L422,466Z" fill="#7eb4d7" stroke="#7eb4d7" stroke-width="1.51"/><path d="M830,577L975,606L877,469Z" fill="#3f8dc4" stroke="#3f8dc4" stroke-width="1.51"/><path d="M750,752L845,683L770,579Z" fill="#3c89c2" stroke="#3c89c2" stroke-width="1.51"/><path d="M1088,69L978,42L988,199Z" fill="#7ca4d1" stroke="#7ca4d1" stroke-width="1.51"/><path d="M988,199L978,42L899,159Z" fill="#7ba7d3" stroke="#7ba7d3" stroke-width="1.51"/><path d="M229,458L311,592L362,436Z" fill="#85b7da" stroke="#85b7da" stroke-width="1.51"/><path d="M222,300L229,458L336,323Z" fill="#98c4e1" stroke="#98c4e1" stroke-width="1.51"/><path d="M845,683L975,606L830,577Z" fill="#3986c0" stroke="#3986c0" stroke-width="1.51"/><path d="M974,467L1103,328L1025,304Z" fill="#5291c6" stroke="#5291c6" stroke-width="1.51"/><path d="M328,116L174,37L250,204Z" fill="#b9d6ea" stroke="#b9d6ea" stroke-width="1.51"/><path d="M513,-61L366,-41L509,110Z" fill="#afd1e7" stroke="#afd1e7" stroke-width="1.51"/><path d="M978,42L905,-61L843,113Z" fill="#89b0d8" stroke="#89b0d8" stroke-width="1.51"/><path d="M776,-19L615,-161L596,-16Z" fill="#a1c6e4" stroke="#a1c6e4" stroke-width="1.51"/><path d="M602,714L750,752L633,597Z" fill="#488fc5" stroke="#488fc5" stroke-width="1.51"/><path d="M1089,715L1093,622L975,606Z" fill="#2a77b8" stroke="#2a77b8" stroke-width="1.51"/><path d="M1153,512L1103,328L974,467Z" fill="#4588c1" stroke="#4588c1" stroke-width="1.51"/><path d="M1025,304L1115,180L988,199Z" fill="#6a9ccb" stroke="#6a9ccb" stroke-width="1.51"/><path d="M513,-61L422,-187L366,-41Z" fill="#b9d7eb" stroke="#b9d7eb" stroke-width="1.51"/><path d="M758,-232L615,-161L776,-19Z" fill="#a2c6e3" stroke="#a2c6e3" stroke-width="1.51"/><path d="M1103,328L1115,180L1025,304Z" fill="#6295c7" stroke="#6295c7" stroke-width="1.51"/><path d="M978,42L1035,-109L905,-61Z" fill="#8baed7" stroke="#8baed7" stroke-width="1.51"/><path d="M311,592L337,701L507,585Z" fill="#70a7d1" stroke="#70a7d1" stroke-width="1.51"/><path d="M602,714L696,841L750,752Z" fill="#4185bf" stroke="#4185bf" stroke-width="1.51"/><path d="M175,591L337,701L311,592Z" fill="#7cabd4" stroke="#7cabd4" stroke-width="1.51"/><path d="M1115,180L1088,69L988,199Z" fill="#749ecd" stroke="#749ecd" stroke-width="1.51"/><path d="M337,701L421,769L507,585Z" fill="#689fcd" stroke="#689fcd" stroke-width="1.51"/><path d="M1035,-109L864,-168L905,-61Z" fill="#93b4da" stroke="#93b4da" stroke-width="1.51"/><path d="M905,-61L864,-168L776,-19Z" fill="#95badd" stroke="#95badd" stroke-width="1.51"/><path d="M908,846L999,764L845,683Z" fill="#2a76b7" stroke="#2a76b7" stroke-width="1.51"/><path d="M582,863L696,841L602,714Z" fill="#4585be" stroke="#4585be" stroke-width="1.51"/><path d="M206,-56L174,37L328,116Z" fill="#c3daee" stroke="#c3daee" stroke-width="1.51"/><path d="M53,161L74,375L222,300Z" fill="#afd1e7" stroke="#afd1e7" stroke-width="1.51"/><path d="M114,455L175,591L229,458Z" fill="#91bcde" stroke="#91bcde" stroke-width="1.51"/><path d="M206,-56L328,116L366,-41Z" fill="#bfd9ec" stroke="#bfd9ec" stroke-width="1.51"/><path d="M615,-161L422,-187L513,-61Z" fill="#b4d4e9" stroke="#b4d4e9" stroke-width="1.51"/><path d="M758,-232L422,-187L615,-161Z" fill="#afd1e9" stroke="#afd1e9" stroke-width="1.51"/><path d="M325,851L443,870L421,769Z" fill="#6491c3" stroke="#6491c3" stroke-width="1.51"/><path d="M229,458L175,591L311,592Z" fill="#86b5da" stroke="#86b5da" stroke-width="1.51"/><path d="M114,455L229,458L222,300Z" fill="#99c3e2" stroke="#99c3e2" stroke-width="1.51"/><path d="M975,606L1093,622L974,467Z" fill="#3582be" stroke="#3582be" stroke-width="1.51"/><path d="M1103,328L1273,200L1115,180Z" fill="#6591c3" stroke="#6591c3" stroke-width="1.51"/><path d="M999,764L975,606L845,683Z" fill="#2f7cbb" stroke="#2f7cbb" stroke-width="1.51"/><path d="M1093,622L1153,512L974,467Z" fill="#3780bd" stroke="#3780bd" stroke-width="1.51"/><path d="M74,375L114,455L222,300Z" fill="#a0c8e4" stroke="#a0c8e4" stroke-width="1.51"/><path d="M864,-168L758,-232L776,-19Z" fill="#9cc0e0" stroke="#9cc0e0" stroke-width="1.51"/><path d="M421,769L582,863L602,714Z" fill="#538dc3" stroke="#538dc3" stroke-width="1.51"/><path d="M247,-148L206,-56L366,-41Z" fill="#c8deef" stroke="#c8deef" stroke-width="1.51"/><path d="M1088,69L1035,-109L978,42Z" fill="#85a7d3" stroke="#85a7d3" stroke-width="1.51"/><path d="M864,-168L981,-226L758,-232Z" fill="#9ebee0" stroke="#9ebee0" stroke-width="1.51"/><path d="M66,594L160,724L175,591Z" fill="#88b0d8" stroke="#88b0d8" stroke-width="1.51"/><path d="M53,161L222,300L250,204Z" fill="#b3d3e8" stroke="#b3d3e8" stroke-width="1.51"/><path d="M908,846L845,683L750,752Z" fill="#317dba" stroke="#317dba" stroke-width="1.51"/><path d="M421,769L443,870L582,863Z" fill="#588bc0" stroke="#588bc0" stroke-width="1.51"/><path d="M325,851L421,769L337,701Z" fill="#6a98c9" stroke="#6a98c9" stroke-width="1.51"/><path d="M696,841L908,846L750,752Z" fill="#337bb8" stroke="#337bb8" stroke-width="1.51"/><path d="M691,973L908,846L696,841Z" fill="#3375b3" stroke="#3375b3" stroke-width="1.51"/><path d="M999,764L1089,715L975,606Z" fill="#2775b8" stroke="#2775b8" stroke-width="1.51"/><path d="M1267,580L1240,511L1153,512Z" fill="#3375b4" stroke="#3375b4" stroke-width="1.51"/><path d="M1086,874L1089,715L999,764Z" fill="#1d69af" stroke="#1d69af" stroke-width="1.51"/><path d="M293,-195L247,-148L366,-41Z" fill="#c9dfef" stroke="#c9dfef" stroke-width="1.51"/><path d="M77,64L174,37L93,-83Z" fill="#cee0f2" stroke="#cee0f2" stroke-width="1.51"/><path d="M77,64L53,161L174,37Z" fill="#c8dcf0" stroke="#c8dcf0" stroke-width="1.51"/><path d="M174,37L53,161L250,204Z" fill="#bfd8ec" stroke="#bfd8ec" stroke-width="1.51"/><path d="M1088,69L1152,-31L1035,-109Z" fill="#85a3d1" stroke="#85a3d1" stroke-width="1.51"/><path d="M1294,104L1152,-31L1088,69Z" fill="#7c99ca" stroke="#7c99ca" stroke-width="1.51"/><path d="M1294,104L1088,69L1115,180Z" fill="#7596c8" stroke="#7596c8" stroke-width="1.51"/><path d="M758,-232L293,-195L422,-187Z" fill="#bcd9ec" stroke="#bcd9ec" stroke-width="1.51"/><path d="M422,-187L293,-195L366,-41Z" fill="#c4ddee" stroke="#c4ddee" stroke-width="1.51"/><path d="M93,-83L174,37L206,-56Z" fill="#cfe0f1" stroke="#cfe0f1" stroke-width="1.51"/><path d="M160,724L325,851L337,701Z" fill="#749dcd" stroke="#749dcd" stroke-width="1.51"/><path d="M1153,512L1284,332L1103,328Z" fill="#4984bd" stroke="#4984bd" stroke-width="1.51"/><path d="M1267,580L1153,512L1093,622Z" fill="#2e76b4" stroke="#2e76b4" stroke-width="1.51"/><path d="M1174,-217L981,-226L1035,-109Z" fill="#93add6" stroke="#93add6" stroke-width="1.51"/><path d="M1035,-109L981,-226L864,-168Z" fill="#96b4db" stroke="#96b4db" stroke-width="1.51"/><path d="M175,591L160,724L337,701Z" fill="#7ea8d4" stroke="#7ea8d4" stroke-width="1.51"/><path d="M66,594L175,591L114,455Z" fill="#8fb9dd" stroke="#8fb9dd" stroke-width="1.51"/><path d="M1284,332L1273,200L1103,328Z" fill="#5b88be" stroke="#5b88be" stroke-width="1.51"/><path d="M1240,511L1284,332L1153,512Z" fill="#3e7bb7" stroke="#3e7bb7" stroke-width="1.51"/><path d="M-24,463L66,594L114,455Z" fill="#97bfe0" stroke="#97bfe0" stroke-width="1.51"/><path d="M-24,463L114,455L74,375Z" fill="#9fc6e3" stroke="#9fc6e3" stroke-width="1.51"/><path d="M-47,246L-15,341L53,161Z" fill="#bad8ea" stroke="#bad8ea" stroke-width="1.51"/><path d="M53,161L-15,341L74,375Z" fill="#b2d2e8" stroke="#b2d2e8" stroke-width="1.51"/><path d="M484,965L582,863L443,870Z" fill="#5383bb" stroke="#5383bb" stroke-width="1.51"/><path d="M638,1003L691,973L582,863Z" fill="#4076af" stroke="#4076af" stroke-width="1.51"/><path d="M582,863L691,973L696,841Z" fill="#3f7bb7" stroke="#3f7bb7" stroke-width="1.51"/><path d="M314,1032L484,965L443,870Z" fill="#5c82b5" stroke="#5c82b5" stroke-width="1.51"/><path d="M247,-148L93,-83L206,-56Z" fill="#d1e2f3" stroke="#d1e2f3" stroke-width="1.51"/><path d="M-92,42L-47,246L53,161Z" fill="#c8deef" stroke="#c8deef" stroke-width="1.51"/><path d="M48,-184L93,-83L247,-148Z" fill="#d8e6f5" stroke="#d8e6f5" stroke-width="1.51"/><path d="M1240,511L1354,442L1284,332Z" fill="#4077b1" stroke="#4077b1" stroke-width="1.51"/><path d="M1227,777L1267,580L1093,622Z" fill="#236baf" stroke="#236baf" stroke-width="1.51"/><path d="M1273,200L1294,104L1115,180Z" fill="#6d90c2" stroke="#6d90c2" stroke-width="1.51"/><path d="M1152,-31L1174,-217L1035,-109Z" fill="#8ba5d1" stroke="#8ba5d1" stroke-width="1.51"/><path d="M1413,236L1294,104L1273,200Z" fill="#6786b7" stroke="#6786b7" stroke-width="1.51"/><path d="M1089,715L1227,777L1093,622Z" fill="#206bb0" stroke="#206bb0" stroke-width="1.51"/><path d="M908,846L984,904L999,764Z" fill="#226baf" stroke="#226baf" stroke-width="1.51"/><path d="M975,975L984,904L908,846Z" fill="#1f65a9" stroke="#1f65a9" stroke-width="1.51"/><path d="M-15,341L-24,463L74,375Z" fill="#a5cbe6" stroke="#a5cbe6" stroke-width="1.51"/><path d="M-92,42L53,161L77,64Z" fill="#cde0f1" stroke="#cde0f1" stroke-width="1.51"/><path d="M-15,341L-163,432L-24,463Z" fill="#a8cce7" stroke="#a8cce7" stroke-width="1.51"/><path d="M484,965L638,1003L582,863Z" fill="#487ab2" stroke="#487ab2" stroke-width="1.51"/><path d="M901,1026L975,975L908,846Z" fill="#2262a4" stroke="#2262a4" stroke-width="1.51"/><path d="M984,904L1086,874L999,764Z" fill="#1b66ac" stroke="#1b66ac" stroke-width="1.51"/><path d="M1284,332L1392,294L1273,200Z" fill="#5982b4" stroke="#5982b4" stroke-width="1.51"/><path d="M1267,580L1354,442L1240,511Z" fill="#3471ae" stroke="#3471ae" stroke-width="1.51"/><path d="M1400,611L1354,442L1267,580Z" fill="#2e6aa6" stroke="#2e6aa6" stroke-width="1.51"/><path d="M325,851L314,1032L443,870Z" fill="#6489bc" stroke="#6489bc" stroke-width="1.51"/><path d="M160,724L191,872L325,851Z" fill="#7699ca" stroke="#7699ca" stroke-width="1.51"/><path d="M79,895L191,872L160,724Z" fill="#7c9acb" stroke="#7c9acb" stroke-width="1.51"/><path d="M35,745L160,724L66,594Z" fill="#87abd6" stroke="#87abd6" stroke-width="1.51"/><path d="M1294,104L1248,-103L1152,-31Z" fill="#7f97c8" stroke="#7f97c8" stroke-width="1.51"/><path d="M901,1026L908,846L691,973Z" fill="#2a69a8" stroke="#2a69a8" stroke-width="1.51"/><path d="M984,904L1125,974L1086,874Z" fill="#155ca3" stroke="#155ca3" stroke-width="1.51"/><path d="M1248,-103L1174,-217L1152,-31Z" fill="#889fcd" stroke="#889fcd" stroke-width="1.51"/><path d="M1086,874L1227,777L1089,715Z" fill="#1963aa" stroke="#1963aa" stroke-width="1.51"/><path d="M1281,834L1227,777L1086,874Z" fill="#125ba3" stroke="#125ba3" stroke-width="1.51"/><path d="M1294,104L1371,-50L1248,-103Z" fill="#7c91c0" stroke="#7c91c0" stroke-width="1.51"/><path d="M1354,442L1392,294L1284,332Z" fill="#4b78ae" stroke="#4b78ae" stroke-width="1.51"/><path d="M-35,644L35,745L66,594Z" fill="#8db1d9" stroke="#8db1d9" stroke-width="1.51"/><path d="M-24,463L-35,644L66,594Z" fill="#95bcde" stroke="#95bcde" stroke-width="1.51"/><path d="M-146,565L-35,644L-24,463Z" fill="#9abfe0" stroke="#9abfe0" stroke-width="1.51"/><path d="M638,1003L901,1026L691,973Z" fill="#336aa3" stroke="#336aa3" stroke-width="1.51"/><path d="M88,1031L246,966L191,872Z" fill="#748bbb" stroke="#748bbb" stroke-width="1.51"/><path d="M191,872L246,966L325,851Z" fill="#708fc3" stroke="#708fc3" stroke-width="1.51"/><path d="M484,965L314,1032L638,1003Z" fill="#527aab" stroke="#527aab" stroke-width="1.51"/><path d="M1392,294L1413,236L1273,200Z" fill="#5d80b0" stroke="#5d80b0" stroke-width="1.51"/><path d="M1400,611L1413,236L1392,294Z" fill="#4572a7" stroke="#4572a7" stroke-width="1.51"/><path d="M-41,-89L-92,42L77,64Z" fill="#d5e5f4" stroke="#d5e5f4" stroke-width="1.51"/><path d="M293,-195L48,-184L247,-148Z" fill="#d6e6f4" stroke="#d6e6f4" stroke-width="1.51"/><path d="M-94,-217L48,-184L293,-195Z" fill="#dfebf7" stroke="#dfebf7" stroke-width="1.51"/><path d="M1413,236L1387,64L1294,104Z" fill="#6b85b4" stroke="#6b85b4" stroke-width="1.51"/><path d="M1248,-103L1291,-169L1174,-217Z" fill="#8a9ecb" stroke="#8a9ecb" stroke-width="1.51"/><path d="M-47,246L-181,368L-15,341Z" fill="#b5d5e9" stroke="#b5d5e9" stroke-width="1.51"/><path d="M-41,-89L77,64L93,-83Z" fill="#d5e5f4" stroke="#d5e5f4" stroke-width="1.51"/><path d="M48,-184L-41,-89L93,-83Z" fill="#dce9f6" stroke="#dce9f6" stroke-width="1.51"/><path d="M638,1003L314,1032L901,1026Z" fill="#3f6fa5" stroke="#3f6fa5" stroke-width="1.51"/><path d="M246,966L314,1032L325,851Z" fill="#6988b9" stroke="#6988b9" stroke-width="1.51"/><path d="M1371,-50L1291,-169L1248,-103Z" fill="#8395c2" stroke="#8395c2" stroke-width="1.51"/><path d="M-92,42L-157,224L-47,246Z" fill="#c9e0ef" stroke="#c9e0ef" stroke-width="1.51"/><path d="M1387,64L1371,-50L1294,104Z" fill="#758ab9" stroke="#758ab9" stroke-width="1.51"/><path d="M1358,-240L1371,-50L1387,64Z" fill="#7d8eb9" stroke="#7d8eb9" stroke-width="1.51"/><path d="M246,966L88,1031L314,1032Z" fill="#6d84b2" stroke="#6d84b2" stroke-width="1.51"/><path d="M35,745L79,895L160,724Z" fill="#82a1cf" stroke="#82a1cf" stroke-width="1.51"/><path d="M-40,854L79,895L35,745Z" fill="#839ecd" stroke="#839ecd" stroke-width="1.51"/><path d="M1354,442L1400,611L1392,294Z" fill="#3b6ea6" stroke="#3b6ea6" stroke-width="1.51"/><path d="M1422,716L1400,611L1267,580Z" fill="#23609f" stroke="#23609f" stroke-width="1.51"/><path d="M-35,644L-97,723L35,745Z" fill="#8eaed8" stroke="#8eaed8" stroke-width="1.51"/><path d="M-181,368L-163,432L-15,341Z" fill="#afd1e9" stroke="#afd1e9" stroke-width="1.51"/><path d="M1227,777L1422,716L1267,580Z" fill="#1c5fa3" stroke="#1c5fa3" stroke-width="1.51"/><path d="M975,975L1125,974L984,904Z" fill="#175ba0" stroke="#175ba0" stroke-width="1.51"/><path d="M901,1026L1125,974L975,975Z" fill="#1a589b" stroke="#1a589b" stroke-width="1.51"/><path d="M1221,972L1281,834L1086,874Z" fill="#0c549e" stroke="#0c549e" stroke-width="1.51"/><path d="M-157,224L-181,368L-47,246Z" fill="#bdd9ec" stroke="#bdd9ec" stroke-width="1.51"/><path d="M-193,716L-146,565L-163,432Z" fill="#9ec1e1" stroke="#9ec1e1" stroke-width="1.51"/><path d="M-163,432L-146,565L-24,463Z" fill="#a3c7e4" stroke="#a3c7e4" stroke-width="1.51"/><path d="M-157,224L-158,69L-181,368Z" fill="#c8e0ef" stroke="#c8e0ef" stroke-width="1.51"/><path d="M-92,42L-158,69L-157,224Z" fill="#d3e4f2" stroke="#d3e4f2" stroke-width="1.51"/><path d="M-185,-108L-158,69L-92,42Z" fill="#ddeaf7" stroke="#ddeaf7" stroke-width="1.51"/><path d="M-146,565L-97,723L-35,644Z" fill="#95b7dc" stroke="#95b7dc" stroke-width="1.51"/><path d="M-97,723L-40,854L35,745Z" fill="#8aa6d3" stroke="#8aa6d3" stroke-width="1.51"/><path d="M79,895L88,1031L191,872Z" fill="#7990c1" stroke="#7990c1" stroke-width="1.51"/><path d="M1356,842L1422,716L1281,834Z" fill="#125297" stroke="#125297" stroke-width="1.51"/><path d="M1281,834L1422,716L1227,777Z" fill="#14579d" stroke="#14579d" stroke-width="1.51"/><path d="M1400,611L1422,716L1413,236Z" fill="#30669f" stroke="#30669f" stroke-width="1.51"/><path d="M1125,974L1221,972L1086,874Z" fill="#10549b" stroke="#10549b" stroke-width="1.51"/><path d="M901,1026L1221,972L1125,974Z" fill="#135397" stroke="#135397" stroke-width="1.51"/><path d="M1366,980L1356,842L1281,834Z" fill="#0a4b92" stroke="#0a4b92" stroke-width="1.51"/><path d="M1291,-169L1358,-240L1174,-217Z" fill="#8c9cc9" stroke="#8c9cc9" stroke-width="1.51"/><path d="M1174,-217L1358,-240L981,-226Z" fill="#92a6d0" stroke="#92a6d0" stroke-width="1.51"/><path d="M981,-226L1358,-240L758,-232Z" fill="#97b1da" stroke="#97b1da" stroke-width="1.51"/><path d="M1371,-50L1358,-240L1291,-169Z" fill="#8594bf" stroke="#8594bf" stroke-width="1.51"/><path d="M1413,236L1358,-240L1387,64Z" fill="#7588b5" stroke="#7588b5" stroke-width="1.51"/><path d="M-41,-89L-185,-108L-92,42Z" fill="#dfebf7" stroke="#dfebf7" stroke-width="1.51"/><path d="M48,-184L-94,-217L-41,-89Z" fill="#e2eef8" stroke="#e2eef8" stroke-width="1.51"/><path d="M758,-232L-94,-217L293,-195Z" fill="#cee3f1" stroke="#cee3f1" stroke-width="1.51"/><path d="M-39,1008L88,1031L79,895Z" fill="#7a8ebb" stroke="#7a8ebb" stroke-width="1.51"/><path d="M-94,-217L-185,-108L-41,-89Z" fill="#e5f0f9" stroke="#e5f0f9" stroke-width="1.51"/><path d="M-158,69L-210,-166L-181,368Z" fill="#d8e7f5" stroke="#d8e7f5" stroke-width="1.51"/><path d="M-146,565L-193,716L-97,723Z" fill="#97b6db" stroke="#97b6db" stroke-width="1.51"/><path d="M-97,723L-194,863L-40,854Z" fill="#8da5d0" stroke="#8da5d0" stroke-width="1.51"/><path d="M-40,854L-39,1008L79,895Z" fill="#8196c5" stroke="#8196c5" stroke-width="1.51"/><path d="M-181,368L-193,716L-163,432Z" fill="#a6c8e4" stroke="#a6c8e4" stroke-width="1.51"/><path d="M-210,-166L-193,716L-181,368Z" fill="#bedaec" stroke="#bedaec" stroke-width="1.51"/><path d="M-185,-108L-210,-166L-158,69Z" fill="#e4eef9" stroke="#e4eef9" stroke-width="1.51"/><path d="M-94,-217L-210,-166L-185,-108Z" fill="#eaf3fb" stroke="#eaf3fb" stroke-width="1.51"/><path d="M-200,954L-39,1008L-40,854Z" fill="#8597c4" stroke="#8597c4" stroke-width="1.51"/><path d="M1221,972L1366,980L1281,834Z" fill="#094a91" stroke="#094a91" stroke-width="1.51"/><path d="M1356,842L1366,980L1422,716Z" fill="#0e4a8f" stroke="#0e4a8f" stroke-width="1.51"/><path d="M901,1026L1366,980L1221,972Z" fill="#0f4d92" stroke="#0f4d92" stroke-width="1.51"/><path d="M-200,954L-194,863L-193,716Z" fill="#90a5d0" stroke="#90a5d0" stroke-width="1.51"/><path d="M-193,716L-194,863L-97,723Z" fill="#92acd5" stroke="#92acd5" stroke-width="1.51"/><path d="M-194,863L-200,954L-40,854Z" fill="#8b9ecc" stroke="#8b9ecc" stroke-width="1.51"/><path d="M-210,-166L-200,954L-193,716Z" fill="#a7c9e5" stroke="#a7c9e5" stroke-width="1.51"/></svg>