<svg xmlns="http://www.w3.org/2000/svg" width="1200" height="800"><path d="M581,435L627,373L538,385Z" fill="#fffcbb" stroke="#fffcbb" stroke-width="1.51"/><path d="M581,435L676,412L627,373Z" fill="#fdfebb" stroke="#fdfebb" stroke-width="1.51"/><path d="M627,373L631,297L538,385Z" fill="#fff8b4" stroke="#fff8b4" stroke-width="1.51"/><path d="M708,287L631,297L627,373Z" fill="#fbf2a5" stroke="#fbf2a5" stroke-width="1.51"/><path d="M538,385L475,416L581,435Z" fill="#fef7b1" stroke="#fef7b1" stroke-width="1.51"/><path d="M439,368L475,416L538,385Z" fill="#fff2a9" stroke="#fff2a9" stroke-width="1.51"/><path d="M631,297L510,296L538,385Z" fill="#fff1a7" stroke="#fff1a7" stroke-width="1.51"/><path d="M510,296L439,368L538,385Z" fill="#ffeda2" stroke="#ffeda2" stroke-width="1.51"/><path d="M510,296L467,290L439,368Z" fill="#ffe797" stroke="#ffe797" stroke-width="1.51"/><path d="M396,239L467,290L423,151Z" fill="#fed17e" stroke="#fed17e" stroke-width="1.51"/><path d="M581,435L647,532L676,412Z" fill="#f6fcb1" stroke="#f6fcb1" stroke-width="1.51"/><path d="M523,579L647,532L581,435Z" fill="#f3f9a9" stroke="#f3f9a9" stroke-width="1.51"/><path d="M676,412L708,287L627,373Z" fill="#faf7ac" stroke="#faf7ac" stroke-width="1.51"/><path d="M533,143L467,290L510,296Z" fill="#ffdc8d" stroke="#ffdc8d" stroke-width="1.51"/><path d="M774,364L708,287L676,412Z" fill="#f6f5a6" stroke="#f6f5a6" stroke-width="1.51"/><path d="M647,532L742,470L676,412Z" fill="#f1f9a8" stroke="#f1f9a8" stroke-width="1.51"/><path d="M475,416L437,507L581,435Z" fill="#faf2a4" stroke="#faf2a4" stroke-width="1.51"/><path d="M402,478L437,507L475,416Z" fill="#f8eb98" stroke="#f8eb98" stroke-width="1.51"/><path d="M742,470L774,364L676,412Z" fill="#f3fbac" stroke="#f3fbac" stroke-width="1.51"/><path d="M437,507L523,579L581,435Z" fill="#f4f29f" stroke="#f4f29f" stroke-width="1.51"/><path d="M437,640L509,624L523,579Z" fill="#dbe59e" stroke="#dbe59e" stroke-width="1.51"/><path d="M439,368L402,478L475,416Z" fill="#fdeda0" stroke="#fdeda0" stroke-width="1.51"/><path d="M742,470L818,455L774,364Z" fill="#ebf7a7" stroke="#ebf7a7" stroke-width="1.51"/><path d="M647,532L742,526L742,470Z" fill="#eaf79f" stroke="#eaf79f" stroke-width="1.51"/><path d="M628,617L742,526L647,532Z" fill="#e2f3a5" stroke="#e2f3a5" stroke-width="1.51"/><path d="M774,364L804,318L708,287Z" fill="#f1ef9b" stroke="#f1ef9b" stroke-width="1.51"/><path d="M818,455L804,318L774,364Z" fill="#eaf4a8" stroke="#eaf4a8" stroke-width="1.51"/><path d="M439,368L358,338L402,478Z" fill="#ffe79d" stroke="#ffe79d" stroke-width="1.51"/><path d="M467,290L358,338L439,368Z" fill="#ffe292" stroke="#ffe292" stroke-width="1.51"/><path d="M523,579L628,617L647,532Z" fill="#e4f4af" stroke="#e4f4af" stroke-width="1.51"/><path d="M467,290L396,239L358,338Z" fill="#feda86" stroke="#feda86" stroke-width="1.51"/><path d="M533,143L510,296L631,297Z" fill="#ffe296" stroke="#ffe296" stroke-width="1.51"/><path d="M742,526L818,455L742,470Z" fill="#e7f69e" stroke="#e7f69e" stroke-width="1.51"/><path d="M523,579L509,624L628,617Z" fill="#dceca8" stroke="#dceca8" stroke-width="1.51"/><path d="M437,640L523,579L437,507Z" fill="#e4e699" stroke="#e4e699" stroke-width="1.51"/><path d="M686,141L533,143L631,297Z" fill="#ffdc92" stroke="#ffdc92" stroke-width="1.51"/><path d="M686,141L631,297L708,287Z" fill="#fae493" stroke="#fae493" stroke-width="1.51"/><path d="M767,149L686,141L708,287Z" fill="#f7d884" stroke="#f7d884" stroke-width="1.51"/><path d="M402,478L359,545L437,507Z" fill="#f4e38c" stroke="#f4e38c" stroke-width="1.51"/><path d="M233,454L359,545L402,478Z" fill="#f7d985" stroke="#f7d985" stroke-width="1.51"/><path d="M358,338L300,345L402,478Z" fill="#ffde95" stroke="#ffde95" stroke-width="1.51"/><path d="M265,293L300,345L358,338Z" fill="#ffcf81" stroke="#ffcf81" stroke-width="1.51"/><path d="M533,143L423,151L467,290Z" fill="#ffd07f" stroke="#ffd07f" stroke-width="1.51"/><path d="M396,239L265,293L358,338Z" fill="#fecf7d" stroke="#fecf7d" stroke-width="1.51"/><path d="M727,706L785,646L628,617Z" fill="#c6e7a3" stroke="#c6e7a3" stroke-width="1.51"/><path d="M359,545L437,640L437,507Z" fill="#e8e08f" stroke="#e8e08f" stroke-width="1.51"/><path d="M423,151L352,197L396,239Z" fill="#fec472" stroke="#fec472" stroke-width="1.51"/><path d="M835,178L767,149L708,287Z" fill="#f1d883" stroke="#f1d883" stroke-width="1.51"/><path d="M972,388L871,256L804,318Z" fill="#dbe69f" stroke="#dbe69f" stroke-width="1.51"/><path d="M804,318L835,178L708,287Z" fill="#eee38e" stroke="#eee38e" stroke-width="1.51"/><path d="M742,526L852,571L818,455Z" fill="#dcf19a" stroke="#dcf19a" stroke-width="1.51"/><path d="M818,455L908,442L804,318Z" fill="#e1f3ae" stroke="#e1f3ae" stroke-width="1.51"/><path d="M828,607L852,571L742,526Z" fill="#cfeb9d" stroke="#cfeb9d" stroke-width="1.51"/><path d="M526,729L628,617L509,624Z" fill="#cfe7aa" stroke="#cfe7aa" stroke-width="1.51"/><path d="M628,617L785,646L742,526Z" fill="#d5eea1" stroke="#d5eea1" stroke-width="1.51"/><path d="M785,646L828,607L742,526Z" fill="#cdea9e" stroke="#cdea9e" stroke-width="1.51"/><path d="M871,256L835,178L804,318Z" fill="#e5dd8f" stroke="#e5dd8f" stroke-width="1.51"/><path d="M852,571L908,442L818,455Z" fill="#d5eea1" stroke="#d5eea1" stroke-width="1.51"/><path d="M686,141L679,53L533,143Z" fill="#fec783" stroke="#fec783" stroke-width="1.51"/><path d="M533,143L422,45L423,151Z" fill="#feba70" stroke="#feba70" stroke-width="1.51"/><path d="M767,149L726,92L686,141Z" fill="#f7c87a" stroke="#f7c87a" stroke-width="1.51"/><path d="M850,60L726,92L767,149Z" fill="#f0be74" stroke="#f0be74" stroke-width="1.51"/><path d="M209,521L346,624L359,545Z" fill="#e9cf80" stroke="#e9cf80" stroke-width="1.51"/><path d="M352,197L265,293L396,239Z" fill="#fec674" stroke="#fec674" stroke-width="1.51"/><path d="M359,545L346,624L437,640Z" fill="#dfd88d" stroke="#dfd88d" stroke-width="1.51"/><path d="M233,454L402,478L300,345Z" fill="#fed98e" stroke="#fed98e" stroke-width="1.51"/><path d="M437,640L526,729L509,624Z" fill="#cedf9f" stroke="#cedf9f" stroke-width="1.51"/><path d="M479,773L526,729L437,640Z" fill="#c2d89e" stroke="#c2d89e" stroke-width="1.51"/><path d="M643,759L727,706L628,617Z" fill="#c0e5aa" stroke="#c0e5aa" stroke-width="1.51"/><path d="M785,646L822,713L828,607Z" fill="#b7e1a1" stroke="#b7e1a1" stroke-width="1.51"/><path d="M726,92L679,53L686,141Z" fill="#f9c178" stroke="#f9c178" stroke-width="1.51"/><path d="M754,-35L679,53L726,92Z" fill="#f4b271" stroke="#f4b271" stroke-width="1.51"/><path d="M679,53L554,34L533,143Z" fill="#ffbd80" stroke="#ffbd80" stroke-width="1.51"/><path d="M298,23L271,201L352,197Z" fill="#fca95f" stroke="#fca95f" stroke-width="1.51"/><path d="M187,441L233,454L167,379Z" fill="#fec381" stroke="#fec381" stroke-width="1.51"/><path d="M352,197L271,201L265,293Z" fill="#febc6c" stroke="#febc6c" stroke-width="1.51"/><path d="M187,441L226,503L233,454Z" fill="#fac57c" stroke="#fac57c" stroke-width="1.51"/><path d="M402,49L352,197L423,151Z" fill="#fdb569" stroke="#fdb569" stroke-width="1.51"/><path d="M526,729L643,759L628,617Z" fill="#c3e6b2" stroke="#c3e6b2" stroke-width="1.51"/><path d="M233,454L226,503L359,545Z" fill="#f6cf7c" stroke="#f6cf7c" stroke-width="1.51"/><path d="M554,34L422,45L533,143Z" fill="#feb472" stroke="#feb472" stroke-width="1.51"/><path d="M422,45L402,49L423,151Z" fill="#fdab65" stroke="#fdab65" stroke-width="1.51"/><path d="M908,442L972,388L804,318Z" fill="#d8edad" stroke="#d8edad" stroke-width="1.51"/><path d="M871,256L947,231L835,178Z" fill="#ddd48b" stroke="#ddd48b" stroke-width="1.51"/><path d="M1012,438L972,388L908,442Z" fill="#c8e8ae" stroke="#c8e8ae" stroke-width="1.51"/><path d="M835,178L850,60L767,149Z" fill="#eac379" stroke="#eac379" stroke-width="1.51"/><path d="M972,388L947,231L871,256Z" fill="#d3de99" stroke="#d3de99" stroke-width="1.51"/><path d="M187,441L209,521L226,503Z" fill="#f7c277" stroke="#f7c277" stroke-width="1.51"/><path d="M226,503L209,521L359,545Z" fill="#f3cc79" stroke="#f3cc79" stroke-width="1.51"/><path d="M233,454L300,345L167,379Z" fill="#ffca87" stroke="#ffca87" stroke-width="1.51"/><path d="M526,729L549,858L643,759Z" fill="#b4d4b2" stroke="#b4d4b2" stroke-width="1.51"/><path d="M361,770L479,773L437,640Z" fill="#c0d096" stroke="#c0d096" stroke-width="1.51"/><path d="M361,770L437,640L346,624Z" fill="#cdcf8f" stroke="#cdcf8f" stroke-width="1.51"/><path d="M852,571L967,502L908,442Z" fill="#cae9a0" stroke="#cae9a0" stroke-width="1.51"/><path d="M927,617L967,502L852,571Z" fill="#bbe3a1" stroke="#bbe3a1" stroke-width="1.51"/><path d="M927,617L852,571L828,607Z" fill="#bbe3a1" stroke="#bbe3a1" stroke-width="1.51"/><path d="M167,379L300,345L265,293Z" fill="#ffc57c" stroke="#ffc57c" stroke-width="1.51"/><path d="M727,706L822,713L785,646Z" fill="#b6e0a0" stroke="#b6e0a0" stroke-width="1.51"/><path d="M786,851L822,713L727,706Z" fill="#a5d6a2" stroke="#a5d6a2" stroke-width="1.51"/><path d="M554,34L487,-49L422,45Z" fill="#f8a56f" stroke="#f8a56f" stroke-width="1.51"/><path d="M422,45L389,-35L402,49Z" fill="#f79c62" stroke="#f79c62" stroke-width="1.51"/><path d="M655,-29L568,-20L554,34Z" fill="#f8ad80" stroke="#f8ad80" stroke-width="1.51"/><path d="M822,713L927,617L828,607Z" fill="#b1dfa2" stroke="#b1dfa2" stroke-width="1.51"/><path d="M142,218L167,379L265,293Z" fill="#feb56e" stroke="#feb56e" stroke-width="1.51"/><path d="M113,546L200,640L209,521Z" fill="#e8b673" stroke="#e8b673" stroke-width="1.51"/><path d="M896,62L850,60L835,178Z" fill="#e3b877" stroke="#e3b877" stroke-width="1.51"/><path d="M679,53L655,-29L554,34Z" fill="#f9b17d" stroke="#f9b17d" stroke-width="1.51"/><path d="M754,-35L655,-29L679,53Z" fill="#f0ac76" stroke="#f0ac76" stroke-width="1.51"/><path d="M549,858L689,801L643,759Z" fill="#aecfb6" stroke="#aecfb6" stroke-width="1.51"/><path d="M643,759L689,801L727,706Z" fill="#b0dba9" stroke="#b0dba9" stroke-width="1.51"/><path d="M200,640L264,675L346,624Z" fill="#d7c180" stroke="#d7c180" stroke-width="1.51"/><path d="M967,502L1012,438L908,442Z" fill="#c4e7a8" stroke="#c4e7a8" stroke-width="1.51"/><path d="M972,388L1005,263L947,231Z" fill="#cbda9a" stroke="#cbda9a" stroke-width="1.51"/><path d="M1054,544L1012,438L967,502Z" fill="#b8e1a2" stroke="#b8e1a2" stroke-width="1.51"/><path d="M1029,386L1005,263L972,388Z" fill="#c5dea6" stroke="#c5dea6" stroke-width="1.51"/><path d="M947,231L950,136L835,178Z" fill="#d9c985" stroke="#d9c985" stroke-width="1.51"/><path d="M479,773L549,858L526,729Z" fill="#b4cdaa" stroke="#b4cdaa" stroke-width="1.51"/><path d="M264,675L361,770L346,624Z" fill="#ccc587" stroke="#ccc587" stroke-width="1.51"/><path d="M361,770L457,813L479,773Z" fill="#b7c59c" stroke="#b7c59c" stroke-width="1.51"/><path d="M1054,201L950,136L947,231Z" fill="#cdc587" stroke="#cdc587" stroke-width="1.51"/><path d="M1012,438L1029,386L972,388Z" fill="#c2e6b1" stroke="#c2e6b1" stroke-width="1.51"/><path d="M568,-20L487,-49L554,34Z" fill="#f6a678" stroke="#f6a678" stroke-width="1.51"/><path d="M495,-91L487,-49L568,-20Z" fill="#f09d77" stroke="#f09d77" stroke-width="1.51"/><path d="M271,201L177,198L265,293Z" fill="#fdb166" stroke="#fdb166" stroke-width="1.51"/><path d="M162,53L177,198L271,201Z" fill="#fb9755" stroke="#fb9755" stroke-width="1.51"/><path d="M298,23L352,197L402,49Z" fill="#fba25e" stroke="#fba25e" stroke-width="1.51"/><path d="M264,675L252,693L361,770Z" fill="#c7be84" stroke="#c7be84" stroke-width="1.51"/><path d="M200,640L252,693L264,675Z" fill="#d2b87d" stroke="#d2b87d" stroke-width="1.51"/><path d="M200,640L346,624L209,521Z" fill="#e3c27d" stroke="#e3c27d" stroke-width="1.51"/><path d="M950,136L896,62L835,178Z" fill="#ddbd7c" stroke="#ddbd7c" stroke-width="1.51"/><path d="M850,60L754,-35L726,92Z" fill="#eeb06e" stroke="#eeb06e" stroke-width="1.51"/><path d="M513,-109L495,-91L568,-20Z" fill="#ec9a78" stroke="#ec9a78" stroke-width="1.51"/><path d="M799,-51L754,-35L850,60Z" fill="#e4a671" stroke="#e4a671" stroke-width="1.51"/><path d="M105,486L209,521L187,441Z" fill="#f7bb74" stroke="#f7bb74" stroke-width="1.51"/><path d="M389,-35L298,23L402,49Z" fill="#f5935d" stroke="#f5935d" stroke-width="1.51"/><path d="M487,-49L389,-35L422,45Z" fill="#f39b68" stroke="#f39b68" stroke-width="1.51"/><path d="M525,908L549,858L457,813Z" fill="#abb9b1" stroke="#abb9b1" stroke-width="1.51"/><path d="M457,813L549,858L479,773Z" fill="#b2c4a9" stroke="#b2c4a9" stroke-width="1.51"/><path d="M167,379L105,486L187,441Z" fill="#fcba7b" stroke="#fcba7b" stroke-width="1.51"/><path d="M177,198L142,218L265,293Z" fill="#fca963" stroke="#fca963" stroke-width="1.51"/><path d="M69,127L142,218L177,198Z" fill="#f99054" stroke="#f99054" stroke-width="1.51"/><path d="M85,262L101,367L167,379Z" fill="#fcad72" stroke="#fcad72" stroke-width="1.51"/><path d="M487,-49L495,-91L389,-35Z" fill="#ee966e" stroke="#ee966e" stroke-width="1.51"/><path d="M513,-109L568,-20L648,-147Z" fill="#e99c7f" stroke="#e99c7f" stroke-width="1.51"/><path d="M101,367L105,486L167,379Z" fill="#feb67d" stroke="#feb67d" stroke-width="1.51"/><path d="M648,-147L568,-20L655,-29Z" fill="#eea282" stroke="#eea282" stroke-width="1.51"/><path d="M905,-27L799,-51L850,60Z" fill="#dca373" stroke="#dca373" stroke-width="1.51"/><path d="M1012,438L1112,455L1029,386Z" fill="#b6e1ae" stroke="#b6e1ae" stroke-width="1.51"/><path d="M927,617L1054,544L967,502Z" fill="#b1dea1" stroke="#b1dea1" stroke-width="1.51"/><path d="M1095,604L1054,544L927,617Z" fill="#9ed7a3" stroke="#9ed7a3" stroke-width="1.51"/><path d="M105,486L113,546L209,521Z" fill="#f3b46c" stroke="#f3b46c" stroke-width="1.51"/><path d="M648,-147L655,-29L754,-35Z" fill="#e8a07a" stroke="#e8a07a" stroke-width="1.51"/><path d="M333,-115L254,-52L389,-35Z" fill="#ea7f5c" stroke="#ea7f5c" stroke-width="1.51"/><path d="M822,713L951,735L927,617Z" fill="#9dd6a4" stroke="#9dd6a4" stroke-width="1.51"/><path d="M689,801L786,851L727,706Z" fill="#a9d1a7" stroke="#a9d1a7" stroke-width="1.51"/><path d="M718,893L786,851L689,801Z" fill="#a1c0af" stroke="#a1c0af" stroke-width="1.51"/><path d="M930,843L951,735L822,713Z" fill="#8acba7" stroke="#8acba7" stroke-width="1.51"/><path d="M1127,255L1054,201L1005,263Z" fill="#bdc990" stroke="#bdc990" stroke-width="1.51"/><path d="M1005,263L1054,201L947,231Z" fill="#c8cc8f" stroke="#c8cc8f" stroke-width="1.51"/><path d="M1053,43L905,-27L896,62Z" fill="#d0a174" stroke="#d0a174" stroke-width="1.51"/><path d="M896,62L905,-27L850,60Z" fill="#dca772" stroke="#dca772" stroke-width="1.51"/><path d="M1127,255L1005,263L1148,321Z" fill="#b8ca9b" stroke="#b8ca9b" stroke-width="1.51"/><path d="M361,770L368,856L457,813Z" fill="#b5b79a" stroke="#b5b79a" stroke-width="1.51"/><path d="M252,693L299,809L361,770Z" fill="#beb987" stroke="#beb987" stroke-width="1.51"/><path d="M158,759L299,809L252,693Z" fill="#bfad7f" stroke="#bfad7f" stroke-width="1.51"/><path d="M158,759L252,693L200,640Z" fill="#ccae7a" stroke="#ccae7a" stroke-width="1.51"/><path d="M525,908L670,893L549,858Z" fill="#acb9ba" stroke="#acb9ba" stroke-width="1.51"/><path d="M549,858L670,893L689,801Z" fill="#a7c3ba" stroke="#a7c3ba" stroke-width="1.51"/><path d="M299,809L368,856L361,770Z" fill="#b6af93" stroke="#b6af93" stroke-width="1.51"/><path d="M-31,563L113,546L105,486Z" fill="#e9a970" stroke="#e9a970" stroke-width="1.51"/><path d="M142,218L85,262L167,379Z" fill="#fba867" stroke="#fba867" stroke-width="1.51"/><path d="M69,127L85,262L142,218Z" fill="#f69059" stroke="#f69059" stroke-width="1.51"/><path d="M670,893L718,893L689,801Z" fill="#a2beb5" stroke="#a2beb5" stroke-width="1.51"/><path d="M495,960L525,908L457,813Z" fill="#aeaeab" stroke="#aeaeab" stroke-width="1.51"/><path d="M670,893L799,910L718,893Z" fill="#a3b4ac" stroke="#a3b4ac" stroke-width="1.51"/><path d="M1053,43L896,62L950,136Z" fill="#d1ac77" stroke="#d1ac77" stroke-width="1.51"/><path d="M1054,544L1112,455L1012,438Z" fill="#b0dda5" stroke="#b0dda5" stroke-width="1.51"/><path d="M1105,538L1112,455L1054,544Z" fill="#aad6a3" stroke="#aad6a3" stroke-width="1.51"/><path d="M799,910L828,865L786,851Z" fill="#95b5ae" stroke="#95b5ae" stroke-width="1.51"/><path d="M786,851L828,865L822,713Z" fill="#98c6a9" stroke="#98c6a9" stroke-width="1.51"/><path d="M298,23L162,53L271,201Z" fill="#fa8f52" stroke="#fa8f52" stroke-width="1.51"/><path d="M254,-52L162,53L298,23Z" fill="#f27b50" stroke="#f27b50" stroke-width="1.51"/><path d="M254,-52L298,23L389,-35Z" fill="#f08559" stroke="#f08559" stroke-width="1.51"/><path d="M731,-166L754,-35L799,-51Z" fill="#de9c71" stroke="#de9c71" stroke-width="1.51"/><path d="M731,-166L648,-147L754,-35Z" fill="#db9874" stroke="#db9874" stroke-width="1.51"/><path d="M1095,604L1105,538L1054,544Z" fill="#9dd2a4" stroke="#9dd2a4" stroke-width="1.51"/><path d="M333,-115L495,-91L513,-109Z" fill="#e38d6a" stroke="#e38d6a" stroke-width="1.51"/><path d="M333,-115L389,-35L495,-91Z" fill="#e88a66" stroke="#e88a66" stroke-width="1.51"/><path d="M113,546L78,613L200,640Z" fill="#e0ab71" stroke="#e0ab71" stroke-width="1.51"/><path d="M-12,618L78,613L-31,563Z" fill="#d59d75" stroke="#d59d75" stroke-width="1.51"/><path d="M-31,466L105,486L101,367Z" fill="#f4ac7c" stroke="#f4ac7c" stroke-width="1.51"/><path d="M951,735L1068,680L927,617Z" fill="#8fd1a5" stroke="#8fd1a5" stroke-width="1.51"/><path d="M930,843L1010,743L951,735Z" fill="#7bc3a8" stroke="#7bc3a8" stroke-width="1.51"/><path d="M1068,680L1095,604L927,617Z" fill="#91d1a5" stroke="#91d1a5" stroke-width="1.51"/><path d="M1054,201L1053,43L950,136Z" fill="#c7b37e" stroke="#c7b37e" stroke-width="1.51"/><path d="M1148,321L1005,263L1029,386Z" fill="#bad6a1" stroke="#bad6a1" stroke-width="1.51"/><path d="M648,-147L333,-115L513,-109Z" fill="#df8e71" stroke="#df8e71" stroke-width="1.51"/><path d="M828,865L930,843L822,713Z" fill="#8ec3aa" stroke="#8ec3aa" stroke-width="1.51"/><path d="M718,893L799,910L786,851Z" fill="#9eb6ab" stroke="#9eb6ab" stroke-width="1.51"/><path d="M495,960L799,910L670,893Z" fill="#abb0b3" stroke="#abb0b3" stroke-width="1.51"/><path d="M78,613L158,759L200,640Z" fill="#d2a773" stroke="#d2a773" stroke-width="1.51"/><path d="M271,942L326,967L368,856Z" fill="#b49090" stroke="#b49090" stroke-width="1.51"/><path d="M1010,743L1068,680L951,735Z" fill="#7cc9a5" stroke="#7cc9a5" stroke-width="1.51"/><path d="M1194,388L1112,455L1214,440Z" fill="#aac9b8" stroke="#aac9b8" stroke-width="1.51"/><path d="M1194,388L1148,321L1112,455Z" fill="#afccb8" stroke="#afccb8" stroke-width="1.51"/><path d="M1112,455L1148,321L1029,386Z" fill="#b4d8b3" stroke="#b4d8b3" stroke-width="1.51"/><path d="M916,960L930,843L828,865Z" fill="#83abae" stroke="#83abae" stroke-width="1.51"/><path d="M1010,743L1097,695L1068,680Z" fill="#74c6a5" stroke="#74c6a5" stroke-width="1.51"/><path d="M85,262L17,319L101,367Z" fill="#f7a36f" stroke="#f7a36f" stroke-width="1.51"/><path d="M-26,278L17,319L85,262Z" fill="#f19a6b" stroke="#f19a6b" stroke-width="1.51"/><path d="M820,-158L731,-166L799,-51Z" fill="#d09370" stroke="#d09370" stroke-width="1.51"/><path d="M648,-147L238,-138L333,-115Z" fill="#db8163" stroke="#db8163" stroke-width="1.51"/><path d="M162,53L69,127L177,198Z" fill="#f7824c" stroke="#f7824c" stroke-width="1.51"/><path d="M62,59L69,127L162,53Z" fill="#f26f48" stroke="#f26f48" stroke-width="1.51"/><path d="M525,908L495,960L670,893Z" fill="#afaeb4" stroke="#afaeb4" stroke-width="1.51"/><path d="M368,856L495,960L457,813Z" fill="#aeaea4" stroke="#aeaea4" stroke-width="1.51"/><path d="M326,967L495,960L368,856Z" fill="#b39999" stroke="#b39999" stroke-width="1.51"/><path d="M905,-27L820,-158L799,-51Z" fill="#d29774" stroke="#d29774" stroke-width="1.51"/><path d="M1149,180L1053,43L1054,201Z" fill="#beae82" stroke="#beae82" stroke-width="1.51"/><path d="M944,-154L820,-158L905,-27Z" fill="#c28e74" stroke="#c28e74" stroke-width="1.51"/><path d="M1161,811L1097,695L1010,743Z" fill="#63bba8" stroke="#63bba8" stroke-width="1.51"/><path d="M1068,680L1097,695L1095,604Z" fill="#80c7a7" stroke="#80c7a7" stroke-width="1.51"/><path d="M1214,440L1112,455L1235,513Z" fill="#a5c4b3" stroke="#a5c4b3" stroke-width="1.51"/><path d="M1127,255L1149,180L1054,201Z" fill="#bab990" stroke="#bab990" stroke-width="1.51"/><path d="M1203,234L1149,180L1127,255Z" fill="#b5b197" stroke="#b5b197" stroke-width="1.51"/><path d="M162,-72L162,53L254,-52Z" fill="#ec6b4d" stroke="#ec6b4d" stroke-width="1.51"/><path d="M162,-72L109,6L162,53Z" fill="#ec6347" stroke="#ec6347" stroke-width="1.51"/><path d="M1148,321L1203,234L1127,255Z" fill="#b3bba0" stroke="#b3bba0" stroke-width="1.51"/><path d="M1112,455L1105,538L1235,513Z" fill="#a5caaa" stroke="#a5caaa" stroke-width="1.51"/><path d="M158,759L141,809L299,809Z" fill="#bb9c7f" stroke="#bb9c7f" stroke-width="1.51"/><path d="M42,777L141,809L158,759Z" fill="#ba9079" stroke="#ba9079" stroke-width="1.51"/><path d="M1053,43L1003,-58L905,-27Z" fill="#c59876" stroke="#c59876" stroke-width="1.51"/><path d="M1003,-90L1003,-58L1128,-104Z" fill="#b08877" stroke="#b08877" stroke-width="1.51"/><path d="M109,6L62,59L162,53Z" fill="#ef6646" stroke="#ef6646" stroke-width="1.51"/><path d="M-18,193L-26,278L85,262Z" fill="#ef8f64" stroke="#ef8f64" stroke-width="1.51"/><path d="M17,319L-31,466L101,367Z" fill="#f5a880" stroke="#f5a880" stroke-width="1.51"/><path d="M78,613L42,777L158,759Z" fill="#c49b75" stroke="#c49b75" stroke-width="1.51"/><path d="M-90,378L-31,466L17,319Z" fill="#eda081" stroke="#eda081" stroke-width="1.51"/><path d="M-18,193L85,262L69,127Z" fill="#f1885a" stroke="#f1885a" stroke-width="1.51"/><path d="M238,-138L162,-72L254,-52Z" fill="#e16550" stroke="#e16550" stroke-width="1.51"/><path d="M109,6L-50,-21L62,59Z" fill="#e5574a" stroke="#e5574a" stroke-width="1.51"/><path d="M333,-115L238,-138L254,-52Z" fill="#df6f55" stroke="#df6f55" stroke-width="1.51"/><path d="M160,-154L238,-138L648,-147Z" fill="#d7745b" stroke="#d7745b" stroke-width="1.51"/><path d="M1235,513L1105,538L1218,622Z" fill="#95bead" stroke="#95bead" stroke-width="1.51"/><path d="M1284,312L1203,234L1148,321Z" fill="#adb3a8" stroke="#adb3a8" stroke-width="1.51"/><path d="M271,942L368,856L299,809Z" fill="#b29c94" stroke="#b29c94" stroke-width="1.51"/><path d="M16,104L-18,193L69,127Z" fill="#ec7753" stroke="#ec7753" stroke-width="1.51"/><path d="M1054,904L1028,842L930,843Z" fill="#64a9b1" stroke="#64a9b1" stroke-width="1.51"/><path d="M930,843L1028,842L1010,743Z" fill="#6fb8ac" stroke="#6fb8ac" stroke-width="1.51"/><path d="M162,929L271,942L299,809Z" fill="#b48989" stroke="#b48989" stroke-width="1.51"/><path d="M62,59L16,104L69,127Z" fill="#ed6d4d" stroke="#ed6d4d" stroke-width="1.51"/><path d="M-50,-21L16,104L62,59Z" fill="#e65949" stroke="#e65949" stroke-width="1.51"/><path d="M1003,-58L1003,-90L905,-27Z" fill="#c29278" stroke="#c29278" stroke-width="1.51"/><path d="M1157,-32L1003,-58L1053,43Z" fill="#b79077" stroke="#b79077" stroke-width="1.51"/><path d="M1149,180L1126,34L1053,43Z" fill="#bd9b7c" stroke="#bd9b7c" stroke-width="1.51"/><path d="M1242,197L1203,234L1300,266Z" fill="#b1a19b" stroke="#b1a19b" stroke-width="1.51"/><path d="M-31,563L78,613L113,546Z" fill="#dfa472" stroke="#dfa472" stroke-width="1.51"/><path d="M-31,466L-31,563L105,486Z" fill="#e9a572" stroke="#e9a572" stroke-width="1.51"/><path d="M1196,50L1126,34L1149,180Z" fill="#b89281" stroke="#b89281" stroke-width="1.51"/><path d="M1128,-104L944,-154L1003,-90Z" fill="#ab8375" stroke="#ab8375" stroke-width="1.51"/><path d="M1003,-90L944,-154L905,-27Z" fill="#be8e76" stroke="#be8e76" stroke-width="1.51"/><path d="M820,-158L944,-154L731,-166Z" fill="#c18a6f" stroke="#c18a6f" stroke-width="1.51"/><path d="M799,910L916,960L828,865Z" fill="#90a8ab" stroke="#90a8ab" stroke-width="1.51"/><path d="M495,960L916,960L799,910Z" fill="#a7a8a7" stroke="#a7a8a7" stroke-width="1.51"/><path d="M326,967L916,960L495,960Z" fill="#b2a5b1" stroke="#b2a5b1" stroke-width="1.51"/><path d="M1284,312L1148,321L1194,388Z" fill="#abbbb2" stroke="#abbbb2" stroke-width="1.51"/><path d="M1218,622L1105,538L1095,604Z" fill="#90c4aa" stroke="#90c4aa" stroke-width="1.51"/><path d="M1218,622L1095,604L1097,695Z" fill="#81c0ac" stroke="#81c0ac" stroke-width="1.51"/><path d="M141,809L162,929L299,809Z" fill="#b48d87" stroke="#b48d87" stroke-width="1.51"/><path d="M-15,755L42,777L78,613Z" fill="#be9477" stroke="#be9477" stroke-width="1.51"/><path d="M-15,755L78,613L-12,618Z" fill="#c89777" stroke="#c89777" stroke-width="1.51"/><path d="M-100,266L-90,378L-26,278Z" fill="#e4906e" stroke="#e4906e" stroke-width="1.51"/><path d="M-26,278L-90,378L17,319Z" fill="#eb9774" stroke="#eb9774" stroke-width="1.51"/><path d="M-31,466L-151,489L-31,563Z" fill="#db9971" stroke="#db9971" stroke-width="1.51"/><path d="M-100,266L-26,278L-18,193Z" fill="#e68764" stroke="#e68764" stroke-width="1.51"/><path d="M1256,723L1218,622L1097,695Z" fill="#6eb0b0" stroke="#6eb0b0" stroke-width="1.51"/><path d="M74,849L162,929L141,809Z" fill="#b17c81" stroke="#b17c81" stroke-width="1.51"/><path d="M271,942L162,929L326,967Z" fill="#b57c85" stroke="#b57c85" stroke-width="1.51"/><path d="M1203,234L1242,197L1149,180Z" fill="#b2a597" stroke="#b2a597" stroke-width="1.51"/><path d="M1283,449L1194,388L1214,440Z" fill="#a7bdba" stroke="#a7bdba" stroke-width="1.51"/><path d="M42,777L74,849L141,809Z" fill="#b3857d" stroke="#b3857d" stroke-width="1.51"/><path d="M731,-166L160,-154L648,-147Z" fill="#d88a71" stroke="#d88a71" stroke-width="1.51"/><path d="M238,-138L160,-154L162,-72Z" fill="#d8574b" stroke="#d8574b" stroke-width="1.51"/><path d="M162,-72L35,-126L109,6Z" fill="#e0504b" stroke="#e0504b" stroke-width="1.51"/><path d="M-121,191L-18,193L16,104Z" fill="#e57457" stroke="#e57457" stroke-width="1.51"/><path d="M-121,191L-100,266L-18,193Z" fill="#df7d5e" stroke="#df7d5e" stroke-width="1.51"/><path d="M1028,842L1161,811L1010,743Z" fill="#5eb3ac" stroke="#5eb3ac" stroke-width="1.51"/><path d="M916,960L1054,904L930,843Z" fill="#74a2ad" stroke="#74a2ad" stroke-width="1.51"/><path d="M1126,34L1157,-32L1053,43Z" fill="#b78c7a" stroke="#b78c7a" stroke-width="1.51"/><path d="M1242,197L1196,50L1149,180Z" fill="#b3988c" stroke="#b3988c" stroke-width="1.51"/><path d="M1235,513L1283,449L1214,440Z" fill="#a5b8b3" stroke="#a5b8b3" stroke-width="1.51"/><path d="M1319,550L1283,449L1235,513Z" fill="#a4b1aa" stroke="#a4b1aa" stroke-width="1.51"/><path d="M42,777L-43,837L74,849Z" fill="#ac7b80" stroke="#ac7b80" stroke-width="1.51"/><path d="M-119,729L-15,755L-12,618Z" fill="#b68a77" stroke="#b68a77" stroke-width="1.51"/><path d="M-133,638L-12,618L-31,563Z" fill="#c99275" stroke="#c99275" stroke-width="1.51"/><path d="M1355,-43L1215,-69L1196,50Z" fill="#a96980" stroke="#a96980" stroke-width="1.51"/><path d="M1283,449L1284,312L1194,388Z" fill="#acb7b9" stroke="#acb7b9" stroke-width="1.51"/><path d="M1196,50L1157,-32L1126,34Z" fill="#b3837e" stroke="#b3837e" stroke-width="1.51"/><path d="M1145,902L1161,811L1028,842Z" fill="#4c9db5" stroke="#4c9db5" stroke-width="1.51"/><path d="M1218,622L1319,550L1235,513Z" fill="#95b0ac" stroke="#95b0ac" stroke-width="1.51"/><path d="M1284,312L1300,266L1203,234Z" fill="#b0a6a1" stroke="#b0a6a1" stroke-width="1.51"/><path d="M1215,-69L1128,-104L1157,-32Z" fill="#a67480" stroke="#a67480" stroke-width="1.51"/><path d="M1283,449L1300,266L1284,312Z" fill="#b0abad" stroke="#b0abad" stroke-width="1.51"/><path d="M-161,95L-121,191L16,104Z" fill="#db6551" stroke="#db6551" stroke-width="1.51"/><path d="M-100,266L-151,489L-90,378Z" fill="#de947c" stroke="#de947c" stroke-width="1.51"/><path d="M1215,-69L1157,-32L1196,50Z" fill="#ab7781" stroke="#ab7781" stroke-width="1.51"/><path d="M1157,-32L1128,-104L1003,-58Z" fill="#ae827b" stroke="#ae827b" stroke-width="1.51"/><path d="M-121,191L-151,489L-100,266Z" fill="#db8a6e" stroke="#db8a6e" stroke-width="1.51"/><path d="M-90,378L-151,489L-31,466Z" fill="#de987a" stroke="#de987a" stroke-width="1.51"/><path d="M-151,489L-150,543L-31,563Z" fill="#d0926f" stroke="#d0926f" stroke-width="1.51"/><path d="M1161,811L1256,723L1097,695Z" fill="#5aadae" stroke="#5aadae" stroke-width="1.51"/><path d="M1283,449L1354,183L1300,266Z" fill="#b2a1a3" stroke="#b2a1a3" stroke-width="1.51"/><path d="M1311,622L1319,550L1218,622Z" fill="#8ca7ab" stroke="#8ca7ab" stroke-width="1.51"/><path d="M160,-154L35,-126L162,-72Z" fill="#d54948" stroke="#d54948" stroke-width="1.51"/><path d="M35,-126L-50,-21L109,6Z" fill="#dc494d" stroke="#dc494d" stroke-width="1.51"/><path d="M1145,902L1193,840L1161,811Z" fill="#4293b9" stroke="#4293b9" stroke-width="1.51"/><path d="M1161,811L1193,840L1256,723Z" fill="#4b9bb5" stroke="#4b9bb5" stroke-width="1.51"/><path d="M-150,543L-133,638L-31,563Z" fill="#c68e71" stroke="#c68e71" stroke-width="1.51"/><path d="M-15,755L-43,837L42,777Z" fill="#ae807d" stroke="#ae807d" stroke-width="1.51"/><path d="M1054,904L1145,902L1028,842Z" fill="#569db1" stroke="#569db1" stroke-width="1.51"/><path d="M1190,936L1145,902L1054,904Z" fill="#548ab1" stroke="#548ab1" stroke-width="1.51"/><path d="M1333,748L1311,622L1256,723Z" fill="#719aab" stroke="#719aab" stroke-width="1.51"/><path d="M1256,723L1311,622L1218,622Z" fill="#79a6ae" stroke="#79a6ae" stroke-width="1.51"/><path d="M-119,729L-43,837L-15,755Z" fill="#a77d79" stroke="#a77d79" stroke-width="1.51"/><path d="M74,849L42,950L162,929Z" fill="#af6b7d" stroke="#af6b7d" stroke-width="1.51"/><path d="M1344,86L1196,50L1242,197Z" fill="#b48386" stroke="#b48386" stroke-width="1.51"/><path d="M-29,911L42,950L74,849Z" fill="#a8657f" stroke="#a8657f" stroke-width="1.51"/><path d="M162,929L42,950L326,967Z" fill="#b56d7c" stroke="#b56d7c" stroke-width="1.51"/><path d="M-156,802L-119,729L-133,638Z" fill="#a27d73" stroke="#a27d73" stroke-width="1.51"/><path d="M-133,638L-119,729L-12,618Z" fill="#b88974" stroke="#b88974" stroke-width="1.51"/><path d="M-48,-157L-95,-26L-50,-21Z" fill="#ca354d" stroke="#ca354d" stroke-width="1.51"/><path d="M-50,-21L-161,95L16,104Z" fill="#dc5149" stroke="#dc5149" stroke-width="1.51"/><path d="M1300,266L1354,183L1242,197Z" fill="#b49393" stroke="#b49393" stroke-width="1.51"/><path d="M1319,550L1354,183L1283,449Z" fill="#b0acb6" stroke="#b0acb6" stroke-width="1.51"/><path d="M-121,191L-161,95L-151,489Z" fill="#d57d62" stroke="#d57d62" stroke-width="1.51"/><path d="M-151,489L-156,802L-150,543Z" fill="#b88670" stroke="#b88670" stroke-width="1.51"/><path d="M-95,-26L-161,95L-50,-21Z" fill="#cf4249" stroke="#cf4249" stroke-width="1.51"/><path d="M1215,-69L1226,-94L1128,-104Z" fill="#9e6b81" stroke="#9e6b81" stroke-width="1.51"/><path d="M1128,-104L1281,-147L944,-154Z" fill="#9b7279" stroke="#9b7279" stroke-width="1.51"/><path d="M1355,-43L1226,-94L1215,-69Z" fill="#a25f80" stroke="#a25f80" stroke-width="1.51"/><path d="M-140,945L-29,911L-43,837Z" fill="#995a7e" stroke="#995a7e" stroke-width="1.51"/><path d="M-43,837L-29,911L74,849Z" fill="#a46c84" stroke="#a46c84" stroke-width="1.51"/><path d="M1318,863L1333,748L1256,723Z" fill="#5b8cae" stroke="#5b8cae" stroke-width="1.51"/><path d="M1145,902L1190,936L1193,840Z" fill="#4687b7" stroke="#4687b7" stroke-width="1.51"/><path d="M916,960L1190,936L1054,904Z" fill="#6593aa" stroke="#6593aa" stroke-width="1.51"/><path d="M1354,183L1344,86L1242,197Z" fill="#b58388" stroke="#b58388" stroke-width="1.51"/><path d="M1318,863L1256,723L1193,840Z" fill="#4d8db5" stroke="#4d8db5" stroke-width="1.51"/><path d="M1311,622L1333,748L1319,550Z" fill="#849ca9" stroke="#849ca9" stroke-width="1.51"/><path d="M1319,550L1333,748L1354,183Z" fill="#a9a6a7" stroke="#a9a6a7" stroke-width="1.51"/><path d="M-95,-26L-121,-144L-161,95Z" fill="#c63649" stroke="#c63649" stroke-width="1.51"/><path d="M35,-126L-48,-157L-50,-21Z" fill="#ca354d" stroke="#ca354d" stroke-width="1.51"/><path d="M160,-154L-48,-157L35,-126Z" fill="#c73849" stroke="#c73849" stroke-width="1.51"/><path d="M731,-166L-48,-157L160,-154Z" fill="#d26653" stroke="#d26653" stroke-width="1.51"/><path d="M-119,729L-156,802L-43,837Z" fill="#9c7379" stroke="#9c7379" stroke-width="1.51"/><path d="M-150,543L-156,802L-133,638Z" fill="#ae8272" stroke="#ae8272" stroke-width="1.51"/><path d="M-161,95L-156,802L-151,489Z" fill="#d18f74" stroke="#d18f74" stroke-width="1.51"/><path d="M1301,930L1318,863L1193,840Z" fill="#457ab6" stroke="#457ab6" stroke-width="1.51"/><path d="M1226,-94L1281,-147L1128,-104Z" fill="#966381" stroke="#966381" stroke-width="1.51"/><path d="M944,-154L1281,-147L731,-166Z" fill="#a98072" stroke="#a98072" stroke-width="1.51"/><path d="M1355,-43L1281,-147L1226,-94Z" fill="#9c567c" stroke="#9c567c" stroke-width="1.51"/><path d="M-48,-157L-121,-144L-95,-26Z" fill="#bc294a" stroke="#bc294a" stroke-width="1.51"/><path d="M1354,183L1355,-43L1344,86Z" fill="#b5677a" stroke="#b5677a" stroke-width="1.51"/><path d="M1344,86L1355,-43L1196,50Z" fill="#b1697b" stroke="#b1697b" stroke-width="1.51"/><path d="M1190,936L1301,930L1193,840Z" fill="#437cb7" stroke="#437cb7" stroke-width="1.51"/><path d="M916,960L1301,930L1190,936Z" fill="#5983ae" stroke="#5983ae" stroke-width="1.51"/><path d="M-156,802L-140,945L-43,837Z" fill="#905f80" stroke="#905f80" stroke-width="1.51"/><path d="M-29,911L-140,945L42,950Z" fill="#9f527c" stroke="#9f527c" stroke-width="1.51"/><path d="M42,950L-140,945L326,967Z" fill="#ae5b79" stroke="#ae5b79" stroke-width="1.51"/></svg>