<svg xmlns="http://www.w3.org/2000/svg" width="1200" height="800"><path d="M620,347L714,389L657,293Z" fill="#fc9b2e" stroke="#fc9b2e" stroke-width="1.51"/><path d="M620,347L675,460L714,389Z" fill="#fb9226" stroke="#fb9226" stroke-width="1.51"/><path d="M714,389L767,264L657,293Z" fill="#fa9a2f" stroke="#fa9a2f" stroke-width="1.51"/><path d="M675,460L733,455L714,389Z" fill="#f78921" stroke="#f78921" stroke-width="1.51"/><path d="M872,393L865,281L767,264Z" fill="#f38e2a" stroke="#f38e2a" stroke-width="1.51"/><path d="M657,293L558,254L620,347Z" fill="#fea836" stroke="#fea836" stroke-width="1.51"/><path d="M620,347L537,428L675,460Z" fill="#fd9728" stroke="#fd9728" stroke-width="1.51"/><path d="M587,179L558,254L657,293Z" fill="#ffb040" stroke="#ffb040" stroke-width="1.51"/><path d="M558,254L518,345L620,347Z" fill="#ffaa38" stroke="#ffaa38" stroke-width="1.51"/><path d="M518,345L537,428L620,347Z" fill="#fea231" stroke="#fea231" stroke-width="1.51"/><path d="M689,548L717,506L675,460Z" fill="#f3801d" stroke="#f3801d" stroke-width="1.51"/><path d="M675,460L717,506L733,455Z" fill="#f5831e" stroke="#f5831e" stroke-width="1.51"/><path d="M706,129L587,179L657,293Z" fill="#fdb048" stroke="#fdb048" stroke-width="1.51"/><path d="M462,282L473,372L518,345Z" fill="#ffb03e" stroke="#ffb03e" stroke-width="1.51"/><path d="M872,393L714,389L733,455Z" fill="#f6851f" stroke="#f6851f" stroke-width="1.51"/><path d="M872,393L767,264L714,389Z" fill="#f68e27" stroke="#f68e27" stroke-width="1.51"/><path d="M767,264L706,129L657,293Z" fill="#fba73e" stroke="#fba73e" stroke-width="1.51"/><path d="M831,480L872,393L733,455Z" fill="#f17d1b" stroke="#f17d1b" stroke-width="1.51"/><path d="M579,539L689,548L675,460Z" fill="#f5841e" stroke="#f5841e" stroke-width="1.51"/><path d="M717,506L831,480L733,455Z" fill="#f27d1b" stroke="#f27d1b" stroke-width="1.51"/><path d="M852,504L831,480L800,604Z" fill="#ea6f14" stroke="#ea6f14" stroke-width="1.51"/><path d="M518,345L473,372L537,428Z" fill="#ffa735" stroke="#ffa735" stroke-width="1.51"/><path d="M462,282L518,345L558,254Z" fill="#ffb340" stroke="#ffb340" stroke-width="1.51"/><path d="M537,428L579,539L675,460Z" fill="#fa8f24" stroke="#fa8f24" stroke-width="1.51"/><path d="M454,586L579,539L537,428Z" fill="#f79129" stroke="#f79129" stroke-width="1.51"/><path d="M809,143L706,129L767,264Z" fill="#faa748" stroke="#faa748" stroke-width="1.51"/><path d="M422,167L462,282L558,254Z" fill="#ffbf4e" stroke="#ffbf4e" stroke-width="1.51"/><path d="M422,167L388,295L462,282Z" fill="#fec350" stroke="#fec350" stroke-width="1.51"/><path d="M706,129L626,121L587,179Z" fill="#ffb756" stroke="#ffb756" stroke-width="1.51"/><path d="M473,372L456,414L537,428Z" fill="#fea534" stroke="#fea534" stroke-width="1.51"/><path d="M342,330L456,414L473,372Z" fill="#feb23f" stroke="#feb23f" stroke-width="1.51"/><path d="M831,480L852,504L872,393Z" fill="#ed7718" stroke="#ed7718" stroke-width="1.51"/><path d="M800,604L831,480L717,506Z" fill="#ee7316" stroke="#ee7316" stroke-width="1.51"/><path d="M865,281L809,143L767,264Z" fill="#f59c39" stroke="#f59c39" stroke-width="1.51"/><path d="M706,129L678,96L626,121Z" fill="#feb75b" stroke="#feb75b" stroke-width="1.51"/><path d="M782,22L678,96L706,129Z" fill="#fdb45e" stroke="#fdb45e" stroke-width="1.51"/><path d="M579,539L583,605L689,548Z" fill="#f2801c" stroke="#f2801c" stroke-width="1.51"/><path d="M689,548L800,604L717,506Z" fill="#ee7517" stroke="#ee7517" stroke-width="1.51"/><path d="M454,586L583,605L579,539Z" fill="#f38824" stroke="#f38824" stroke-width="1.51"/><path d="M680,641L800,604L689,548Z" fill="#ea7115" stroke="#ea7115" stroke-width="1.51"/><path d="M872,393L967,356L865,281Z" fill="#ed8422" stroke="#ed8422" stroke-width="1.51"/><path d="M921,127L816,62L809,143Z" fill="#f5a653" stroke="#f5a653" stroke-width="1.51"/><path d="M964,457L967,356L872,393Z" fill="#e97718" stroke="#e97718" stroke-width="1.51"/><path d="M964,457L872,393L852,504Z" fill="#ea7417" stroke="#ea7417" stroke-width="1.51"/><path d="M462,282L388,295L473,372Z" fill="#ffb845" stroke="#ffb845" stroke-width="1.51"/><path d="M422,167L558,254L587,179Z" fill="#ffbe52" stroke="#ffbe52" stroke-width="1.51"/><path d="M583,605L680,641L689,548Z" fill="#ed7919" stroke="#ed7919" stroke-width="1.51"/><path d="M626,121L586,60L587,179Z" fill="#ffbd5d" stroke="#ffbd5d" stroke-width="1.51"/><path d="M678,96L586,60L626,121Z" fill="#ffbd61" stroke="#ffbd61" stroke-width="1.51"/><path d="M676,-59L586,60L678,96Z" fill="#ffbf69" stroke="#ffbf69" stroke-width="1.51"/><path d="M896,646L927,525L852,504Z" fill="#e2650e" stroke="#e2650e" stroke-width="1.51"/><path d="M927,525L964,457L852,504Z" fill="#e56c12" stroke="#e56c12" stroke-width="1.51"/><path d="M586,60L422,167L587,179Z" fill="#ffc460" stroke="#ffc460" stroke-width="1.51"/><path d="M809,143L816,62L706,129Z" fill="#faac56" stroke="#faac56" stroke-width="1.51"/><path d="M921,127L809,143L865,281Z" fill="#f29c42" stroke="#f29c42" stroke-width="1.51"/><path d="M1001,280L977,228L865,281Z" fill="#ea8c2b" stroke="#ea8c2b" stroke-width="1.51"/><path d="M1001,280L865,281L967,356Z" fill="#ea8625" stroke="#ea8625" stroke-width="1.51"/><path d="M456,414L454,586L537,428Z" fill="#fa9c30" stroke="#fa9c30" stroke-width="1.51"/><path d="M563,722L686,703L680,641Z" fill="#e36f13" stroke="#e36f13" stroke-width="1.51"/><path d="M365,559L454,586L456,414Z" fill="#f89c33" stroke="#f89c33" stroke-width="1.51"/><path d="M977,228L921,127L865,281Z" fill="#ed9439" stroke="#ed9439" stroke-width="1.51"/><path d="M1026,394L1001,280L967,356Z" fill="#e47b1f" stroke="#e47b1f" stroke-width="1.51"/><path d="M342,330L354,428L456,414Z" fill="#ffb243" stroke="#ffb243" stroke-width="1.51"/><path d="M388,295L342,330L473,372Z" fill="#ffba47" stroke="#ffba47" stroke-width="1.51"/><path d="M256,215L342,330L388,295Z" fill="#ffc75a" stroke="#ffc75a" stroke-width="1.51"/><path d="M800,604L896,646L852,504Z" fill="#e2660f" stroke="#e2660f" stroke-width="1.51"/><path d="M680,641L757,674L800,604Z" fill="#e46910" stroke="#e46910" stroke-width="1.51"/><path d="M686,703L757,674L680,641Z" fill="#e26911" stroke="#e26911" stroke-width="1.51"/><path d="M816,62L782,22L706,129Z" fill="#fbb05d" stroke="#fbb05d" stroke-width="1.51"/><path d="M832,-22L782,22L816,62Z" fill="#fab062" stroke="#fab062" stroke-width="1.51"/><path d="M964,457L1026,394L967,356Z" fill="#e57316" stroke="#e57316" stroke-width="1.51"/><path d="M1058,466L1026,394L964,457Z" fill="#de6c13" stroke="#de6c13" stroke-width="1.51"/><path d="M563,722L680,641L583,605Z" fill="#e87617" stroke="#e87617" stroke-width="1.51"/><path d="M757,674L896,646L800,604Z" fill="#df620d" stroke="#df620d" stroke-width="1.51"/><path d="M927,525L1007,533L964,457Z" fill="#e0650f" stroke="#e0650f" stroke-width="1.51"/><path d="M874,732L896,646L757,674Z" fill="#d85a08" stroke="#d85a08" stroke-width="1.51"/><path d="M454,586L563,722L583,605Z" fill="#ec8121" stroke="#ec8121" stroke-width="1.51"/><path d="M354,428L365,559L456,414Z" fill="#fba73b" stroke="#fba73b" stroke-width="1.51"/><path d="M262,508L365,559L354,428Z" fill="#fba845" stroke="#fba845" stroke-width="1.51"/><path d="M782,22L733,-28L678,96Z" fill="#feb665" stroke="#feb665" stroke-width="1.51"/><path d="M832,-22L733,-28L782,22Z" fill="#fdb468" stroke="#fdb468" stroke-width="1.51"/><path d="M896,646L1007,533L927,525Z" fill="#dd5f0b" stroke="#dd5f0b" stroke-width="1.51"/><path d="M422,167L333,171L388,295Z" fill="#ffcb5f" stroke="#ffcb5f" stroke-width="1.51"/><path d="M323,95L333,171L422,167Z" fill="#ffd472" stroke="#ffd472" stroke-width="1.51"/><path d="M421,56L422,167L586,60Z" fill="#ffcd6d" stroke="#ffcd6d" stroke-width="1.51"/><path d="M676,-59L514,-4L586,60Z" fill="#ffc772" stroke="#ffc772" stroke-width="1.51"/><path d="M514,-4L421,56L586,60Z" fill="#ffcd73" stroke="#ffcd73" stroke-width="1.51"/><path d="M921,127L900,8L816,62Z" fill="#f3a659" stroke="#f3a659" stroke-width="1.51"/><path d="M1036,99L955,70L921,127Z" fill="#eb9c50" stroke="#eb9c50" stroke-width="1.51"/><path d="M1042,183L921,127L977,228Z" fill="#e9923e" stroke="#e9923e" stroke-width="1.51"/><path d="M1042,183L977,228L1001,280Z" fill="#e58b31" stroke="#e58b31" stroke-width="1.51"/><path d="M426,696L563,722L454,586Z" fill="#e98424" stroke="#e98424" stroke-width="1.51"/><path d="M900,8L832,-22L816,62Z" fill="#f7ac62" stroke="#f7ac62" stroke-width="1.51"/><path d="M1095,217L1042,183L1001,280Z" fill="#df8831" stroke="#df8831" stroke-width="1.51"/><path d="M1007,533L1058,466L964,457Z" fill="#dc650f" stroke="#dc650f" stroke-width="1.51"/><path d="M1095,217L1001,280L1141,316Z" fill="#d98127" stroke="#d98127" stroke-width="1.51"/><path d="M733,-28L676,-59L678,96Z" fill="#ffbc6b" stroke="#ffbc6b" stroke-width="1.51"/><path d="M718,-121L676,-59L733,-28Z" fill="#ffbe75" stroke="#ffbe75" stroke-width="1.51"/><path d="M955,70L900,8L921,127Z" fill="#f0a256" stroke="#f0a256" stroke-width="1.51"/><path d="M365,559L382,629L454,586Z" fill="#f19632" stroke="#f19632" stroke-width="1.51"/><path d="M382,629L417,671L454,586Z" fill="#ed902d" stroke="#ed902d" stroke-width="1.51"/><path d="M399,758L426,696L417,671Z" fill="#e3882a" stroke="#e3882a" stroke-width="1.51"/><path d="M417,671L426,696L454,586Z" fill="#eb8b2a" stroke="#eb8b2a" stroke-width="1.51"/><path d="M342,330L245,334L354,428Z" fill="#ffbc53" stroke="#ffbc53" stroke-width="1.51"/><path d="M365,559L259,645L382,629Z" fill="#f1993d" stroke="#f1993d" stroke-width="1.51"/><path d="M256,215L245,334L342,330Z" fill="#ffc961" stroke="#ffc961" stroke-width="1.51"/><path d="M896,646L1048,653L1007,533Z" fill="#d45606" stroke="#d45606" stroke-width="1.51"/><path d="M1007,533L1107,572L1058,466Z" fill="#d35d0c" stroke="#d35d0c" stroke-width="1.51"/><path d="M756,773L874,732L757,674Z" fill="#d45a0b" stroke="#d45a0b" stroke-width="1.51"/><path d="M756,773L757,674L686,703Z" fill="#da620f" stroke="#da620f" stroke-width="1.51"/><path d="M333,171L256,215L388,295Z" fill="#ffcd65" stroke="#ffcd65" stroke-width="1.51"/><path d="M421,56L323,95L422,167Z" fill="#ffd575" stroke="#ffd575" stroke-width="1.51"/><path d="M390,-3L323,95L421,56Z" fill="#ffda80" stroke="#ffda80" stroke-width="1.51"/><path d="M610,864L686,703L563,722Z" fill="#d66a15" stroke="#d66a15" stroke-width="1.51"/><path d="M610,864L756,773L686,703Z" fill="#d06211" stroke="#d06211" stroke-width="1.51"/><path d="M323,95L270,193L333,171Z" fill="#ffd779" stroke="#ffd779" stroke-width="1.51"/><path d="M955,70L1068,-16L900,8Z" fill="#eda15b" stroke="#eda15b" stroke-width="1.51"/><path d="M1042,183L1036,99L921,127Z" fill="#e89647" stroke="#e89647" stroke-width="1.51"/><path d="M1141,316L1001,280L1026,394Z" fill="#dd7920" stroke="#dd7920" stroke-width="1.51"/><path d="M1042,183L1122,123L1036,99Z" fill="#de9147" stroke="#de9147" stroke-width="1.51"/><path d="M270,193L256,215L333,171Z" fill="#ffd574" stroke="#ffd574" stroke-width="1.51"/><path d="M186,240L256,215L147,159Z" fill="#ffda7e" stroke="#ffda7e" stroke-width="1.51"/><path d="M245,334L252,473L354,428Z" fill="#ffb753" stroke="#ffb753" stroke-width="1.51"/><path d="M382,629L399,758L417,671Z" fill="#e78b2c" stroke="#e78b2c" stroke-width="1.51"/><path d="M252,473L262,508L354,428Z" fill="#fcaf4e" stroke="#fcaf4e" stroke-width="1.51"/><path d="M514,-4L390,-3L421,56Z" fill="#ffd67d" stroke="#ffd67d" stroke-width="1.51"/><path d="M530,-109L488,-62L514,-4Z" fill="#ffd281" stroke="#ffd281" stroke-width="1.51"/><path d="M488,-62L390,-3L514,-4Z" fill="#ffd780" stroke="#ffd780" stroke-width="1.51"/><path d="M895,798L976,701L874,732Z" fill="#c74e05" stroke="#c74e05" stroke-width="1.51"/><path d="M874,732L976,701L896,646Z" fill="#d05205" stroke="#d05205" stroke-width="1.51"/><path d="M1165,421L1026,394L1058,466Z" fill="#d66813" stroke="#d66813" stroke-width="1.51"/><path d="M1165,421L1141,316L1026,394Z" fill="#d46e19" stroke="#d46e19" stroke-width="1.51"/><path d="M676,-59L530,-109L514,-4Z" fill="#ffcb7b" stroke="#ffcb7b" stroke-width="1.51"/><path d="M832,-22L718,-121L733,-28Z" fill="#feb870" stroke="#feb870" stroke-width="1.51"/><path d="M856,-140L718,-121L832,-22Z" fill="#fdb574" stroke="#fdb574" stroke-width="1.51"/><path d="M898,-121L832,-22L900,8Z" fill="#f6ad69" stroke="#f6ad69" stroke-width="1.51"/><path d="M245,334L161,426L252,473Z" fill="#ffbc5e" stroke="#ffbc5e" stroke-width="1.51"/><path d="M181,555L259,645L262,508Z" fill="#f6a651" stroke="#f6a651" stroke-width="1.51"/><path d="M256,215L200,312L245,334Z" fill="#ffcd6a" stroke="#ffcd6a" stroke-width="1.51"/><path d="M186,240L200,312L256,215Z" fill="#ffd371" stroke="#ffd371" stroke-width="1.51"/><path d="M353,-153L286,-36L390,-3Z" fill="#ffe396" stroke="#ffe396" stroke-width="1.51"/><path d="M670,-161L530,-109L676,-59Z" fill="#ffc87f" stroke="#ffc87f" stroke-width="1.51"/><path d="M976,701L1048,653L896,646Z" fill="#cf5003" stroke="#cf5003" stroke-width="1.51"/><path d="M1048,653L1107,572L1007,533Z" fill="#ce5508" stroke="#ce5508" stroke-width="1.51"/><path d="M1107,572L1165,421L1058,466Z" fill="#ce5f10" stroke="#ce5f10" stroke-width="1.51"/><path d="M426,696L399,758L563,722Z" fill="#e08025" stroke="#e08025" stroke-width="1.51"/><path d="M291,770L399,758L382,629Z" fill="#e28b34" stroke="#e28b34" stroke-width="1.51"/><path d="M1036,99L1068,-16L955,70Z" fill="#e69a55" stroke="#e69a55" stroke-width="1.51"/><path d="M1095,217L1122,123L1042,183Z" fill="#da8b3d" stroke="#da8b3d" stroke-width="1.51"/><path d="M1198,230L1122,123L1095,217Z" fill="#d38639" stroke="#d38639" stroke-width="1.51"/><path d="M1198,230L1095,217L1141,316Z" fill="#d17e29" stroke="#d17e29" stroke-width="1.51"/><path d="M840,839L895,798L874,732Z" fill="#c34e07" stroke="#c34e07" stroke-width="1.51"/><path d="M976,701L1020,734L1048,653Z" fill="#c64902" stroke="#c64902" stroke-width="1.51"/><path d="M840,839L874,732L756,773Z" fill="#c9530a" stroke="#c9530a" stroke-width="1.51"/><path d="M235,81L270,193L323,95Z" fill="#ffdd85" stroke="#ffdd85" stroke-width="1.51"/><path d="M147,159L256,215L270,193Z" fill="#ffda7f" stroke="#ffda7f" stroke-width="1.51"/><path d="M1279,519L1239,416L1165,421Z" fill="#c05c12" stroke="#c05c12" stroke-width="1.51"/><path d="M1048,653L1108,604L1107,572Z" fill="#c64f06" stroke="#c64f06" stroke-width="1.51"/><path d="M1193,711L1108,604L1048,653Z" fill="#be4705" stroke="#be4705" stroke-width="1.51"/><path d="M718,-121L670,-161L676,-59Z" fill="#ffc17c" stroke="#ffc17c" stroke-width="1.51"/><path d="M856,-140L670,-161L718,-121Z" fill="#ffbc7d" stroke="#ffbc7d" stroke-width="1.51"/><path d="M1122,123L1108,71L1036,99Z" fill="#dc934d" stroke="#dc934d" stroke-width="1.51"/><path d="M262,508L259,645L365,559Z" fill="#f6a146" stroke="#f6a146" stroke-width="1.51"/><path d="M181,555L262,508L252,473Z" fill="#fbad55" stroke="#fbad55" stroke-width="1.51"/><path d="M161,426L245,334L200,312Z" fill="#ffc566" stroke="#ffc566" stroke-width="1.51"/><path d="M286,-36L235,81L323,95Z" fill="#ffe290" stroke="#ffe290" stroke-width="1.51"/><path d="M286,-36L323,95L390,-3Z" fill="#ffe08c" stroke="#ffe08c" stroke-width="1.51"/><path d="M453,855L554,848L563,722Z" fill="#d0711e" stroke="#d0711e" stroke-width="1.51"/><path d="M1068,-16L898,-121L900,8Z" fill="#f0a665" stroke="#f0a665" stroke-width="1.51"/><path d="M895,798L1020,734L976,701Z" fill="#c34903" stroke="#c34903" stroke-width="1.51"/><path d="M898,-121L856,-140L832,-22Z" fill="#f8af71" stroke="#f8af71" stroke-width="1.51"/><path d="M895,798L1069,794L1020,734Z" fill="#bb4403" stroke="#bb4403" stroke-width="1.51"/><path d="M762,859L840,839L756,773Z" fill="#c4530b" stroke="#c4530b" stroke-width="1.51"/><path d="M610,864L762,859L756,773Z" fill="#c65b0f" stroke="#c65b0f" stroke-width="1.51"/><path d="M105,370L161,426L200,312Z" fill="#ffc66a" stroke="#ffc66a" stroke-width="1.51"/><path d="M554,848L610,864L563,722Z" fill="#cf6b18" stroke="#cf6b18" stroke-width="1.51"/><path d="M1108,71L1068,-16L1036,99Z" fill="#e09754" stroke="#e09754" stroke-width="1.51"/><path d="M1265,313L1198,230L1141,316Z" fill="#c87625" stroke="#c87625" stroke-width="1.51"/><path d="M1122,123L1225,60L1108,71Z" fill="#d38f4e" stroke="#d38f4e" stroke-width="1.51"/><path d="M1108,71L1148,-4L1068,-16Z" fill="#db9658" stroke="#db9658" stroke-width="1.51"/><path d="M161,426L181,555L252,473Z" fill="#fdb45c" stroke="#fdb45c" stroke-width="1.51"/><path d="M418,-148L488,-62L530,-109Z" fill="#ffd78b" stroke="#ffd78b" stroke-width="1.51"/><path d="M418,-148L390,-3L488,-62Z" fill="#ffdc8a" stroke="#ffdc8a" stroke-width="1.51"/><path d="M554,848L528,891L610,864Z" fill="#c4681a" stroke="#c4681a" stroke-width="1.51"/><path d="M399,758L453,855L563,722Z" fill="#d67a23" stroke="#d67a23" stroke-width="1.51"/><path d="M363,826L453,855L399,758Z" fill="#d07e29" stroke="#d07e29" stroke-width="1.51"/><path d="M670,-161L418,-148L530,-109Z" fill="#ffd28b" stroke="#ffd28b" stroke-width="1.51"/><path d="M80,230L105,370L200,312Z" fill="#ffd175" stroke="#ffd175" stroke-width="1.51"/><path d="M235,81L147,159L270,193Z" fill="#ffdf8a" stroke="#ffdf8a" stroke-width="1.51"/><path d="M146,68L147,159L235,81Z" fill="#fee597" stroke="#fee597" stroke-width="1.51"/><path d="M840,839L922,950L895,798Z" fill="#b44808" stroke="#b44808" stroke-width="1.51"/><path d="M762,859L824,891L840,839Z" fill="#bb4e0b" stroke="#bb4e0b" stroke-width="1.51"/><path d="M722,913L824,891L762,859Z" fill="#b8510e" stroke="#b8510e" stroke-width="1.51"/><path d="M722,913L762,859L610,864Z" fill="#bd5910" stroke="#bd5910" stroke-width="1.51"/><path d="M453,855L528,891L554,848Z" fill="#c56e1f" stroke="#c56e1f" stroke-width="1.51"/><path d="M1165,421L1239,416L1141,316Z" fill="#ca6917" stroke="#ca6917" stroke-width="1.51"/><path d="M1279,519L1165,421L1107,572Z" fill="#c3570e" stroke="#c3570e" stroke-width="1.51"/><path d="M1231,627L1107,572L1108,604Z" fill="#bf4c08" stroke="#bf4c08" stroke-width="1.51"/><path d="M660,951L722,913L610,864Z" fill="#b95b13" stroke="#b95b13" stroke-width="1.51"/><path d="M161,426L76,468L181,555Z" fill="#feb762" stroke="#feb762" stroke-width="1.51"/><path d="M80,230L200,312L186,240Z" fill="#ffd678" stroke="#ffd678" stroke-width="1.51"/><path d="M259,645L291,770L382,629Z" fill="#e9933d" stroke="#e9933d" stroke-width="1.51"/><path d="M228,812L291,770L146,741Z" fill="#da904a" stroke="#da904a" stroke-width="1.51"/><path d="M291,770L363,826L399,758Z" fill="#d68534" stroke="#d68534" stroke-width="1.51"/><path d="M453,855L490,912L528,891Z" fill="#c16f21" stroke="#c16f21" stroke-width="1.51"/><path d="M1198,230L1225,149L1122,123Z" fill="#cd853d" stroke="#cd853d" stroke-width="1.51"/><path d="M1295,171L1225,149L1198,230Z" fill="#c5803a" stroke="#c5803a" stroke-width="1.51"/><path d="M96,581L157,611L181,555Z" fill="#f6aa5b" stroke="#f6aa5b" stroke-width="1.51"/><path d="M181,555L157,611L259,645Z" fill="#f3a454" stroke="#f3a454" stroke-width="1.51"/><path d="M1225,60L1148,-4L1108,71Z" fill="#d39154" stroke="#d39154" stroke-width="1.51"/><path d="M1068,-16L1039,-158L898,-121Z" fill="#eca46b" stroke="#eca46b" stroke-width="1.51"/><path d="M1239,416L1265,313L1141,316Z" fill="#c66c1d" stroke="#c66c1d" stroke-width="1.51"/><path d="M418,-148L353,-153L390,-3Z" fill="#ffe194" stroke="#ffe194" stroke-width="1.51"/><path d="M177,-5L146,68L235,81Z" fill="#ffe99e" stroke="#ffe99e" stroke-width="1.51"/><path d="M670,-161L353,-153L418,-148Z" fill="#ffd992" stroke="#ffd992" stroke-width="1.51"/><path d="M1020,734L1125,770L1048,653Z" fill="#bb4403" stroke="#bb4403" stroke-width="1.51"/><path d="M1033,922L1069,794L895,798Z" fill="#af3e03" stroke="#af3e03" stroke-width="1.51"/><path d="M365,955L490,912L453,855Z" fill="#bd7426" stroke="#bd7426" stroke-width="1.51"/><path d="M528,891L660,951L610,864Z" fill="#bd6216" stroke="#bd6216" stroke-width="1.51"/><path d="M177,-5L235,81L286,-36Z" fill="#ffe89d" stroke="#ffe89d" stroke-width="1.51"/><path d="M147,159L80,230L186,240Z" fill="#ffdc84" stroke="#ffdc84" stroke-width="1.51"/><path d="M722,913L922,950L824,891Z" fill="#af4a0b" stroke="#af4a0b" stroke-width="1.51"/><path d="M490,912L660,951L528,891Z" fill="#ba651b" stroke="#ba651b" stroke-width="1.51"/><path d="M34,139L80,230L147,159Z" fill="#ffe291" stroke="#ffe291" stroke-width="1.51"/><path d="M250,-101L177,-5L286,-36Z" fill="#ffeba5" stroke="#ffeba5" stroke-width="1.51"/><path d="M105,370L76,468L161,426Z" fill="#ffc16a" stroke="#ffc16a" stroke-width="1.51"/><path d="M2,370L76,468L105,370Z" fill="#ffc671" stroke="#ffc671" stroke-width="1.51"/><path d="M1069,794L1125,770L1020,734Z" fill="#b24003" stroke="#b24003" stroke-width="1.51"/><path d="M353,-153L250,-101L286,-36Z" fill="#ffe8a2" stroke="#ffe8a2" stroke-width="1.51"/><path d="M1293,104L1225,60L1225,149Z" fill="#c5884a" stroke="#c5884a" stroke-width="1.51"/><path d="M1225,149L1225,60L1122,123Z" fill="#cd8b49" stroke="#cd8b49" stroke-width="1.51"/><path d="M898,-121L1039,-158L856,-140Z" fill="#f4aa74" stroke="#f4aa74" stroke-width="1.51"/><path d="M856,-140L1039,-158L670,-161Z" fill="#fab279" stroke="#fab279" stroke-width="1.51"/><path d="M1129,-151L1039,-158L1068,-16Z" fill="#e29e6b" stroke="#e29e6b" stroke-width="1.51"/><path d="M1129,-151L1068,-16L1148,-4Z" fill="#db9a63" stroke="#db9a63" stroke-width="1.51"/><path d="M1193,711L1231,627L1108,604Z" fill="#b74505" stroke="#b74505" stroke-width="1.51"/><path d="M1239,416L1359,366L1265,313Z" fill="#bb661b" stroke="#bb661b" stroke-width="1.51"/><path d="M1231,627L1252,585L1107,572Z" fill="#b94a08" stroke="#b94a08" stroke-width="1.51"/><path d="M146,741L291,770L259,645Z" fill="#e4954a" stroke="#e4954a" stroke-width="1.51"/><path d="M76,468L96,581L181,555Z" fill="#fcb161" stroke="#fcb161" stroke-width="1.51"/><path d="M1252,585L1279,519L1107,572Z" fill="#bb4e0b" stroke="#bb4e0b" stroke-width="1.51"/><path d="M1125,770L1193,711L1048,653Z" fill="#b54104" stroke="#b54104" stroke-width="1.51"/><path d="M1323,674L1279,519L1252,585Z" fill="#ad470a" stroke="#ad470a" stroke-width="1.51"/><path d="M1326,225L1295,171L1198,230Z" fill="#bf7b34" stroke="#bf7b34" stroke-width="1.51"/><path d="M1326,225L1198,230L1265,313Z" fill="#bf7729" stroke="#bf7729" stroke-width="1.51"/><path d="M146,741L259,645L157,611Z" fill="#ed9e51" stroke="#ed9e51" stroke-width="1.51"/><path d="M291,770L228,812L363,826Z" fill="#d4883d" stroke="#d4883d" stroke-width="1.51"/><path d="M363,826L365,955L453,855Z" fill="#c37a2b" stroke="#c37a2b" stroke-width="1.51"/><path d="M824,891L922,950L840,839Z" fill="#b04809" stroke="#b04809" stroke-width="1.51"/><path d="M1069,794L1161,851L1125,770Z" fill="#a53904" stroke="#a53904" stroke-width="1.51"/><path d="M1125,770L1260,794L1193,711Z" fill="#a33904" stroke="#a33904" stroke-width="1.51"/><path d="M660,951L922,950L722,913Z" fill="#af4e0e" stroke="#af4e0e" stroke-width="1.51"/><path d="M1359,366L1326,225L1265,313Z" fill="#b76e23" stroke="#b76e23" stroke-width="1.51"/><path d="M85,699L146,741L157,611Z" fill="#ec9e57" stroke="#ec9e57" stroke-width="1.51"/><path d="M1279,519L1325,478L1239,416Z" fill="#b75712" stroke="#b75712" stroke-width="1.51"/><path d="M1323,674L1325,478L1279,519Z" fill="#ad4a0c" stroke="#ad4a0c" stroke-width="1.51"/><path d="M1323,674L1252,585L1231,627Z" fill="#ab4308" stroke="#ab4308" stroke-width="1.51"/><path d="M1326,225L1293,104L1295,171Z" fill="#bb7e3d" stroke="#bb7e3d" stroke-width="1.51"/><path d="M1295,171L1293,104L1225,149Z" fill="#c08342" stroke="#c08342" stroke-width="1.51"/><path d="M1222,-49L1129,-151L1148,-4Z" fill="#d49663" stroke="#d49663" stroke-width="1.51"/><path d="M1222,-49L1148,-4L1225,60Z" fill="#ce9159" stroke="#ce9159" stroke-width="1.51"/><path d="M1332,-13L1222,-49L1225,60Z" fill="#c58e59" stroke="#c58e59" stroke-width="1.51"/><path d="M-6,667L55,680L96,581Z" fill="#f2a763" stroke="#f2a763" stroke-width="1.51"/><path d="M96,581L85,699L157,611Z" fill="#f2a65c" stroke="#f2a65c" stroke-width="1.51"/><path d="M-14,275L2,370L105,370Z" fill="#ffd17c" stroke="#ffd17c" stroke-width="1.51"/><path d="M-14,275L105,370L80,230Z" fill="#ffd77f" stroke="#ffd77f" stroke-width="1.51"/><path d="M34,139L147,159L146,68Z" fill="#ffe79b" stroke="#ffe79b" stroke-width="1.51"/><path d="M75,39L34,139L146,68Z" fill="#ffeca4" stroke="#ffeca4" stroke-width="1.51"/><path d="M75,39L146,68L177,-5Z" fill="#ffeda6" stroke="#ffeda6" stroke-width="1.51"/><path d="M39,-30L75,39L177,-5Z" fill="#fff0af" stroke="#fff0af" stroke-width="1.51"/><path d="M922,950L1033,922L895,798Z" fill="#aa4006" stroke="#aa4006" stroke-width="1.51"/><path d="M1325,478L1359,366L1239,416Z" fill="#b75d15" stroke="#b75d15" stroke-width="1.51"/><path d="M490,912L365,955L660,951Z" fill="#b76a1f" stroke="#b76a1f" stroke-width="1.51"/><path d="M660,951L1133,954L922,950Z" fill="#a24109" stroke="#a24109" stroke-width="1.51"/><path d="M234,956L365,955L363,826Z" fill="#be7d38" stroke="#be7d38" stroke-width="1.51"/><path d="M234,956L363,826L228,812Z" fill="#c8843f" stroke="#c8843f" stroke-width="1.51"/><path d="M146,741L136,862L228,812Z" fill="#d5904f" stroke="#d5904f" stroke-width="1.51"/><path d="M55,680L85,699L96,581Z" fill="#f0a45f" stroke="#f0a45f" stroke-width="1.51"/><path d="M34,139L-14,275L80,230Z" fill="#ffe18f" stroke="#ffe18f" stroke-width="1.51"/><path d="M1319,701L1323,674L1231,627Z" fill="#a43e06" stroke="#a43e06" stroke-width="1.51"/><path d="M1033,922L1161,851L1069,794Z" fill="#a03804" stroke="#a03804" stroke-width="1.51"/><path d="M34,813L136,862L146,741Z" fill="#d69356" stroke="#d69356" stroke-width="1.51"/><path d="M-19,523L96,581L76,468Z" fill="#fdb669" stroke="#fdb669" stroke-width="1.51"/><path d="M250,-101L168,-144L177,-5Z" fill="#ffefb0" stroke="#ffefb0" stroke-width="1.51"/><path d="M353,-153L168,-144L250,-101Z" fill="#ffecae" stroke="#ffecae" stroke-width="1.51"/><path d="M-56,444L-19,523L76,468Z" fill="#ffbe72" stroke="#ffbe72" stroke-width="1.51"/><path d="M-56,444L76,468L2,370Z" fill="#ffc575" stroke="#ffc575" stroke-width="1.51"/><path d="M1319,701L1231,627L1193,711Z" fill="#a93e05" stroke="#a93e05" stroke-width="1.51"/><path d="M1325,478L1323,674L1359,366Z" fill="#ad5010" stroke="#ad5010" stroke-width="1.51"/><path d="M1260,794L1319,701L1193,711Z" fill="#9f3905" stroke="#9f3905" stroke-width="1.51"/><path d="M1161,851L1260,794L1125,770Z" fill="#9c3604" stroke="#9c3604" stroke-width="1.51"/><path d="M-144,381L-56,444L2,370Z" fill="#ffca7f" stroke="#ffca7f" stroke-width="1.51"/><path d="M168,-144L39,-30L177,-5Z" fill="#fff2b4" stroke="#fff2b4" stroke-width="1.51"/><path d="M75,39L-17,76L34,139Z" fill="#ffeeaa" stroke="#ffeeaa" stroke-width="1.51"/><path d="M34,139L-47,131L-14,275Z" fill="#ffe69b" stroke="#ffe69b" stroke-width="1.51"/><path d="M-14,275L-144,381L2,370Z" fill="#ffd284" stroke="#ffd284" stroke-width="1.51"/><path d="M39,-30L-17,76L75,39Z" fill="#fff2b2" stroke="#fff2b2" stroke-width="1.51"/><path d="M1222,-49L1259,-149L1129,-151Z" fill="#d09669" stroke="#d09669" stroke-width="1.51"/><path d="M1293,104L1332,-13L1225,60Z" fill="#c08a51" stroke="#c08a51" stroke-width="1.51"/><path d="M1326,225L1332,-13L1293,104Z" fill="#ba8449" stroke="#ba8449" stroke-width="1.51"/><path d="M1359,366L1332,-13L1326,225Z" fill="#b57a37" stroke="#b57a37" stroke-width="1.51"/><path d="M34,813L146,741L85,699Z" fill="#e09959" stroke="#e09959" stroke-width="1.51"/><path d="M12,747L85,699L55,680Z" fill="#e99f5f" stroke="#e99f5f" stroke-width="1.51"/><path d="M-6,667L96,581L-19,523Z" fill="#f8af68" stroke="#f8af68" stroke-width="1.51"/><path d="M136,862L234,956L228,812Z" fill="#c6894b" stroke="#c6894b" stroke-width="1.51"/><path d="M-146,566L-6,667L-19,523Z" fill="#fab171" stroke="#fab171" stroke-width="1.51"/><path d="M-17,76L-47,131L34,139Z" fill="#ffedaa" stroke="#ffedaa" stroke-width="1.51"/><path d="M-93,179L-47,131L-81,47Z" fill="#ffeeb0" stroke="#ffeeb0" stroke-width="1.51"/><path d="M1161,851L1266,894L1260,794Z" fill="#8f3105" stroke="#8f3105" stroke-width="1.51"/><path d="M1033,922L1133,954L1161,851Z" fill="#933405" stroke="#933405" stroke-width="1.51"/><path d="M922,950L1133,954L1033,922Z" fill="#983706" stroke="#983706" stroke-width="1.51"/><path d="M1358,962L1133,954L660,951Z" fill="#933506" stroke="#933506" stroke-width="1.51"/><path d="M207,962L660,951L365,955Z" fill="#b47328" stroke="#b47328" stroke-width="1.51"/><path d="M1316,-124L1259,-149L1222,-49Z" fill="#c69167" stroke="#c69167" stroke-width="1.51"/><path d="M1129,-151L1259,-149L1039,-158Z" fill="#d99a6f" stroke="#d99a6f" stroke-width="1.51"/><path d="M-47,131L-81,245L-14,275Z" fill="#ffe397" stroke="#ffe397" stroke-width="1.51"/><path d="M74,889L207,962L136,862Z" fill="#c28950" stroke="#c28950" stroke-width="1.51"/><path d="M136,862L207,962L234,956Z" fill="#bc854b" stroke="#bc854b" stroke-width="1.51"/><path d="M234,956L207,962L365,955Z" fill="#b57d3f" stroke="#b57d3f" stroke-width="1.51"/><path d="M-6,667L12,747L55,680Z" fill="#eca262" stroke="#eca262" stroke-width="1.51"/><path d="M-47,131L-93,179L-81,245Z" fill="#ffe7a1" stroke="#ffe7a1" stroke-width="1.51"/><path d="M-81,245L-144,381L-14,275Z" fill="#ffd98d" stroke="#ffd98d" stroke-width="1.51"/><path d="M-81,47L-47,131L-17,76Z" fill="#fff0b2" stroke="#fff0b2" stroke-width="1.51"/><path d="M1332,-13L1316,-124L1222,-49Z" fill="#c18f61" stroke="#c18f61" stroke-width="1.51"/><path d="M12,747L34,813L85,699Z" fill="#e19c5e" stroke="#e19c5e" stroke-width="1.51"/><path d="M1133,954L1266,894L1161,851Z" fill="#8b3005" stroke="#8b3005" stroke-width="1.51"/><path d="M1260,794L1345,805L1319,701Z" fill="#923405" stroke="#923405" stroke-width="1.51"/><path d="M39,-30L-81,47L-17,76Z" fill="#fff3b7" stroke="#fff3b7" stroke-width="1.51"/><path d="M168,-144L50,-162L39,-30Z" fill="#fff6c1" stroke="#fff6c1" stroke-width="1.51"/><path d="M353,-153L50,-162L168,-144Z" fill="#fff2bb" stroke="#fff2bb" stroke-width="1.51"/><path d="M670,-161L50,-162L353,-153Z" fill="#ffe5a1" stroke="#ffe5a1" stroke-width="1.51"/><path d="M1266,894L1345,805L1260,794Z" fill="#892f05" stroke="#892f05" stroke-width="1.51"/><path d="M1319,701L1345,805L1323,674Z" fill="#963606" stroke="#963606" stroke-width="1.51"/><path d="M1323,674L1345,805L1359,366Z" fill="#a34209" stroke="#a34209" stroke-width="1.51"/><path d="M34,813L74,889L136,862Z" fill="#cd9057" stroke="#cd9057" stroke-width="1.51"/><path d="M-44,-64L-81,47L39,-30Z" fill="#fff7bf" stroke="#fff7bf" stroke-width="1.51"/><path d="M-56,444L-144,457L-19,523Z" fill="#ffc07a" stroke="#ffc07a" stroke-width="1.51"/><path d="M-140,740L-33,798L12,747Z" fill="#e19d68" stroke="#e19d68" stroke-width="1.51"/><path d="M12,747L-33,798L34,813Z" fill="#db9a61" stroke="#db9a61" stroke-width="1.51"/><path d="M-93,179L-144,381L-81,245Z" fill="#ffde93" stroke="#ffde93" stroke-width="1.51"/><path d="M-148,-72L-144,381L-93,179Z" fill="#ffeaac" stroke="#ffeaac" stroke-width="1.51"/><path d="M-144,381L-144,457L-56,444Z" fill="#ffc782" stroke="#ffc782" stroke-width="1.51"/><path d="M50,-162L-44,-64L39,-30Z" fill="#fff8c5" stroke="#fff8c5" stroke-width="1.51"/><path d="M34,813L14,936L74,889Z" fill="#c8905b" stroke="#c8905b" stroke-width="1.51"/><path d="M-140,740L12,747L-6,667Z" fill="#e9a169" stroke="#e9a169" stroke-width="1.51"/><path d="M-144,457L-146,566L-19,523Z" fill="#ffba7a" stroke="#ffba7a" stroke-width="1.51"/><path d="M-144,381L-146,566L-144,457Z" fill="#ffc282" stroke="#ffc282" stroke-width="1.51"/><path d="M-146,566L-144,638L-6,667Z" fill="#f6ad73" stroke="#f6ad73" stroke-width="1.51"/><path d="M50,-162L-56,-136L-44,-64Z" fill="#fffacd" stroke="#fffacd" stroke-width="1.51"/><path d="M-44,-64L-148,-72L-81,47Z" fill="#fff9c8" stroke="#fff9c8" stroke-width="1.51"/><path d="M-81,47L-148,-72L-93,179Z" fill="#fff3be" stroke="#fff3be" stroke-width="1.51"/><path d="M-33,798L14,936L34,813Z" fill="#cf9460" stroke="#cf9460" stroke-width="1.51"/><path d="M74,889L14,936L207,962Z" fill="#bd8954" stroke="#bd8954" stroke-width="1.51"/><path d="M-128,867L14,936L-33,798Z" fill="#cc9365" stroke="#cc9365" stroke-width="1.51"/><path d="M-144,638L-140,740L-6,667Z" fill="#f0a66f" stroke="#f0a66f" stroke-width="1.51"/><path d="M1266,894L1358,962L1345,805Z" fill="#7b2c06" stroke="#7b2c06" stroke-width="1.51"/><path d="M1345,805L1358,962L1359,366Z" fill="#963706" stroke="#963706" stroke-width="1.51"/><path d="M1133,954L1358,962L1266,894Z" fill="#7c2b06" stroke="#7c2b06" stroke-width="1.51"/><path d="M207,962L1358,962L660,951Z" fill="#ac4f10" stroke="#ac4f10" stroke-width="1.51"/><path d="M-56,-136L-126,-112L-44,-64Z" fill="#fffbd1" stroke="#fffbd1" stroke-width="1.51"/><path d="M-126,-112L-148,-72L-44,-64Z" fill="#fffbd1" stroke="#fffbd1" stroke-width="1.51"/><path d="M-144,381L-148,-72L-146,566Z" fill="#ffdc95" stroke="#ffdc95" stroke-width="1.51"/><path d="M-140,740L-128,867L-33,798Z" fill="#da9a6c" stroke="#da9a6c" stroke-width="1.51"/><path d="M-140,740L-132,920L-128,867Z" fill="#d2976e" stroke="#d2976e" stroke-width="1.51"/><path d="M-128,867L-132,920L14,936Z" fill="#c49167" stroke="#c49167" stroke-width="1.51"/><path d="M14,936L-132,920L207,962Z" fill="#bc8c5c" stroke="#bc8c5c" stroke-width="1.51"/></svg>